<svg width="16" height="40" viewBox="0 0 16 40" fill="none" xmlns="http://www.w3.org/2000/svg">
<path d="M10.617 -4.72451C11.0666 -4.66685 11.5026 -4.59638 11.9455 -4.51309C11.688 -3.08366 10.9458 1.00324 10.6841 2.43197L10.2078 5.0588L9.06723 11.3376C8.89279 12.2666 9.75154 13.0802 10.7244 12.9072L13.8173 12.3691C14.8841 12.1833 15.763 13.1507 15.4275 14.131L8.02058 35.6004C8.02058 35.6004 7.04104 38.4259 6.94041 38.727L5.68579 43.75C5.68579 43.75 5.21614 43.5129 5.23627 43.2631C5.29665 42.3533 5.43084 40.4056 5.43084 40.4056L5.50463 39.3036C5.50463 39.2972 6.55798 24.0552 6.55798 24.0552C6.61836 23.1711 5.79313 22.4663 4.88068 22.6265L2.18359 23.1006C1.25102 23.2672 0.419078 22.5304 0.506298 21.6334L2.6935 -0.0795155L2.70019 -0.169221L2.97527 -2.89215C3.08933 -4.00695 4.03534 -4.88468 5.20944 -4.94875H5.22957C5.46439 -4.96157 5.6925 -4.97437 5.92062 -4.98078C6.18228 -4.99359 6.61837 -5 6.88674 -5H6.88732C6.98106 -5 7.07478 -5 7.16852 -4.99361H7.45701C7.86627 -4.98079 8.26883 -4.96157 8.66467 -4.93595L8.88607 -4.91673C9.0605 -4.89751 9.22153 -4.89109 9.38926 -4.87187C9.80523 -4.83343 10.2078 -4.78217 10.617 -4.72451Z" fill="#207D87"/>
</svg>
