<svg width="40" height="32" viewBox="0 0 40 32" fill="none" xmlns="http://www.w3.org/2000/svg">
<path d="M38.8937 16.9438L31.6938 14.1313C31.4375 14.0312 30.9062 13.9 30.3062 14.1313L23.1063 16.9438C22.4375 17.2063 22 17.8188 22 18.5C22 25.475 26.2938 30.3 30.3062 31.8687C30.9062 32.1 31.4312 31.9688 31.6938 31.8687C34.9 30.6187 40 26.2812 40 18.5C40 17.8188 39.5625 17.2063 38.8937 16.9438ZM31 28.9V17.0812L36.9688 19.4125C36.6188 24.8563 33.1625 27.875 31 28.9ZM14 16C18.4188 16 22 12.4187 22 8C22 3.58125 18.4188 0 14 0C9.58125 0 6 3.58125 6 8C6 12.4187 9.58125 16 14 16ZM20 18.5C20 18.3438 20.05 18.2 20.0688 18.05C19.9125 18.0437 19.7625 18 19.6 18H18.5562C17.1687 18.6375 15.625 19 14 19C12.375 19 10.8375 18.6375 9.44375 18H8.4C3.7625 18 0 21.7625 0 26.4V29C0 30.6562 1.34375 32 3 32H25C25.425 32 25.8313 31.9062 26.2 31.75C22.825 29.0688 20 24.4562 20 18.5Z" fill="#207D87"/>
</svg>
