<svg width="36" height="30" viewBox="0 0 36 30" fill="none" xmlns="http://www.w3.org/2000/svg">
<path d="M24.2988 26.2506L21.6005 26.2535V24.375H14.4005V26.2623L11.7016 26.2652C11.2055 26.2658 10.8033 26.6848 10.8028 27.2021L10.7999 29.0613C10.7994 29.5799 11.2033 30.0006 11.7011 30L24.2988 29.9848C24.7949 29.9842 25.1971 29.5652 25.1977 29.0484L25.1999 27.1893C25.2005 26.6707 24.7966 26.25 24.2988 26.2506ZM32.9174 1.5668C32.7701 0.662695 32.0056 0 31.1096 0H4.88975C3.99369 0 3.22925 0.662695 3.08188 1.5668C-0.186807 21.6305 0.00219248 20.3953 0.00162998 20.625C-5.75244e-05 21.6398 0.805443 22.5 1.83538 22.5H34.1645C35.1899 22.5 35.9932 21.6469 35.9977 20.6373C35.9988 20.3982 36.1861 21.6305 32.9174 1.5668ZM14.6154 3.75H21.3839L21.9335 9.375H14.0658L14.6154 3.75ZM10.3871 18.75H3.99875L5.06807 12.1875H11.0289L10.3871 18.75ZM11.3034 9.375H5.52594L6.44226 3.75H11.8529L11.3034 9.375ZM13.1495 18.75L13.7908 12.1875H22.2086L22.8498 18.75H13.1495ZM24.1464 3.75H29.5571L30.4734 9.375H24.6959L24.1464 3.75ZM25.6123 18.75L24.971 12.1875H30.9318L32.0011 18.75H25.6123Z" fill="#207D87"/>
</svg>
