<svg class="sprite-icons" xmlns="http://www.w3.org/2000/svg">

	<symbol id="icon-star">
		<!-- width="34" height="32" viewBox="0 0 34 32" -->
		<g>
			<g>
				<path d="M17 25.723L27.506 32l-2.78-11.838L34 12.2l-12.225-1.039L17 0l-4.775 11.161L0 12.201l9.274 7.96L6.494 32z"/>
			</g>
		</g>
	</symbol>

	<symbol id="logo">
		<!-- width="133" height="38" viewBox="0 0 133 38" -->
		<path d="M88.35 26.4155H85.4121V36.8852H88.35V26.4155Z" fill="#187A88"/>
		<path d="M89.5697 26.8056C89.2725 27.0502 89.0233 27.3407 88.7909 27.6797L88.7861 27.687L88.4961 31.6143C88.6327 31.0356 88.8628 30.5756 89.1887 30.2245C89.7494 29.6264 90.5211 29.3262 91.5012 29.3262H91.6546V26.2197C90.7799 26.1785 90.0825 26.377 89.5697 26.8056Z" fill="#187A88"/>
		<path d="M72.4887 28.8346C72.7835 28.1276 73.1813 27.4932 73.6773 26.9508C73.893 26.7087 74.1278 26.4908 74.3819 26.2947H68.954V23.6167H66.016V26.2947H64.7795H60.9309V23.6167H57.9929V26.2947H54.1299C54.4343 26.544 54.7098 26.8249 54.9567 27.1324C55.3593 27.6409 55.6828 28.2123 55.9176 28.8346H57.9953V33.7983C57.9953 34.4109 58.0696 34.9145 58.2182 35.3116C58.3644 35.7111 58.5704 36.0356 58.8388 36.2801C59.1024 36.5295 59.4188 36.7039 59.7854 36.7983C60.1521 36.8951 60.5594 36.9436 61.01 36.9436C61.5012 36.9436 61.935 36.8879 62.3088 36.7813C62.6803 36.67 63.0205 36.5223 63.3321 36.3407V33.9557C62.8816 34.2051 62.3975 34.3261 61.8823 34.3261C61.2472 34.3261 60.9309 33.9896 60.9309 33.3092V28.8346H64.7795H66.016V33.7983C66.016 34.4109 66.0903 34.9145 66.2389 35.3116C66.3851 35.7111 66.5912 36.0356 66.8596 36.2801C67.1232 36.5295 67.4395 36.7039 67.8062 36.7983C68.1728 36.8951 68.5802 36.9436 69.0307 36.9436C69.522 36.9436 69.9557 36.8879 70.3296 36.7813C70.701 36.67 71.0413 36.5223 71.3528 36.3407V33.9557C70.9023 34.2051 70.4182 34.3261 69.903 34.3261C69.268 34.3261 68.9516 33.9896 68.9516 33.3092V28.8346H72.4887Z" fill="#187A88"/>
		<path d="M2.88047 23.6167H1.38991V26.6651H0V27.9968H1.38991V34.0913C1.38991 34.5997 1.4642 35.0356 1.60319 35.4012C1.74697 35.7644 1.94348 36.0622 2.1951 36.2922C2.44912 36.5174 2.74627 36.6845 3.09375 36.7886C3.44123 36.8927 3.81746 36.9436 4.21766 36.9436C4.57712 36.9436 4.90303 36.9097 5.19299 36.837C5.48296 36.7668 5.75854 36.6579 6.01496 36.515V35.2293C5.75854 35.36 5.5165 35.4472 5.28885 35.5005C5.06598 35.5562 4.82395 35.5828 4.56514 35.5828C4.06189 35.5828 3.6545 35.4569 3.34777 35.2075C3.03623 34.9629 2.88286 34.5247 2.88286 33.8976V27.9993H6.05569V26.6675H2.88047V23.6167Z" fill="#187A88"/>
		<path d="M10.1732 22.5054H8.68262V36.7693H10.1732V22.5054Z" fill="#187A88"/>
		<path d="M16.4102 27.578C16.0795 27.2173 15.6793 26.9412 15.2096 26.7475C14.7399 26.5514 14.2007 26.4521 13.5944 26.4521C12.7293 26.4521 12.0272 26.6458 11.4856 27.0308C11.4305 27.072 11.3754 27.1132 11.3203 27.1543V28.4303C11.5192 28.2705 11.7396 28.1446 11.9817 28.0478C12.3483 27.9001 12.7437 27.8226 13.1703 27.8226C14.0593 27.8226 14.7399 28.0962 15.2168 28.6458C15.6937 29.1906 15.9333 29.9365 15.9333 30.871V36.7742H17.4239V30.5006C17.4239 29.9025 17.34 29.3553 17.1627 28.8613C16.9877 28.3601 16.7361 27.934 16.4102 27.578Z" fill="#187A88"/>
		<path d="M26.8129 35.3042C26.3144 35.5632 25.7201 35.694 25.0228 35.694C24.5866 35.694 24.1673 35.6189 23.7671 35.4712C23.3669 35.3187 23.005 35.0959 22.6839 34.8029C22.3604 34.51 22.0968 34.154 21.8907 33.7303C21.8236 33.5971 21.7661 33.4567 21.7133 33.3066H20.1797C20.2348 33.5003 20.2971 33.6891 20.3738 33.8732C20.6422 34.5245 21.004 35.0814 21.4569 35.5463C21.9122 36.0063 22.4442 36.3647 23.0505 36.6213C23.6568 36.8732 24.2991 36.9991 24.9844 36.9991C25.9382 36.9991 26.7338 36.8296 27.3808 36.4833C28.0255 36.1395 28.5982 35.6795 29.1014 35.1032L28.174 34.2606C27.7619 34.6964 27.3065 35.0451 26.8129 35.3042Z" fill="#187A88"/>
		<path d="M28.213 28.0138C27.8128 27.532 27.3215 27.1494 26.7416 26.871C26.1617 26.5901 25.5051 26.4473 24.7718 26.4473C24.0744 26.4473 23.4322 26.5853 22.8451 26.8589C22.2579 27.1325 21.7547 27.5078 21.3305 27.9824C20.904 28.4569 20.5709 29.0211 20.3336 29.6628C20.094 30.3068 19.9766 30.9969 19.9766 31.7233C19.9766 31.9097 19.9838 32.0937 20.0029 32.2729H29.416C29.428 32.1809 29.4352 32.0937 29.4352 32.0163V31.8008C29.4352 31.0598 29.3321 30.3625 29.1236 29.7136C28.9151 29.0647 28.6132 28.4957 28.213 28.0138ZM21.5031 31.1615C21.5534 30.6652 21.6708 30.2075 21.8482 29.7935C22.0279 29.3746 22.2603 29.0138 22.5407 28.7063C22.8235 28.4013 23.1494 28.1615 23.5208 27.9824C23.8923 27.808 24.2949 27.7184 24.731 27.7184C25.2295 27.7184 25.6704 27.8153 26.049 27.9993C26.4277 28.1882 26.7464 28.44 27.01 28.7523C27.2712 29.0671 27.4749 29.4303 27.6235 29.8468C27.7745 30.2657 27.8655 30.7039 27.9015 31.1591H21.5031V31.1615Z" fill="#187A88"/>
		<path d="M40.9689 29.6167C41.2109 29.486 41.4386 29.331 41.6518 29.1494C41.8603 28.9678 42.0472 28.7572 42.2054 28.5126C42.366 28.2705 42.4954 28.0041 42.5912 27.7039C42.6871 27.4037 42.735 27.0598 42.735 26.6652V26.6288C42.735 25.5465 42.342 24.6869 41.5488 24.0477C40.7556 23.4109 39.6676 23.0913 38.2753 23.0913H32.0039V31.1228H38.3448C39.1188 31.1228 39.6796 31.256 40.0295 31.5223C40.377 31.7886 40.5495 32.1518 40.5495 32.6046V32.6458C40.5495 33.1543 40.3626 33.5271 39.9887 33.7693C39.6149 34.0114 39.0997 34.1325 38.4431 34.1325H35.7208V34.1373H32.0039V36.7693H38.4335C39.1931 36.7693 39.8833 36.6918 40.5064 36.5368C41.1294 36.3819 41.6662 36.1446 42.1096 35.8322C42.5529 35.5199 42.8956 35.1276 43.1328 34.6603C43.3725 34.1906 43.4899 33.6434 43.4899 33.0187V32.9823C43.4899 32.0695 43.267 31.3552 42.8141 30.8419C42.366 30.3238 41.7501 29.917 40.9689 29.6167ZM39.7946 27.1736C39.7946 27.6821 39.6029 28.0526 39.2147 28.2777C38.8289 28.5078 38.3089 28.6191 37.6475 28.6191H34.9036V25.7305H37.8416C38.4718 25.7305 38.9559 25.8492 39.2914 26.0913C39.6293 26.3334 39.7946 26.6797 39.7946 27.1373V27.1736Z" fill="#187A88"/>
		<path d="M54.7172 28.8347C54.5494 28.4715 54.3386 28.1374 54.0965 27.8299C53.8066 27.4691 53.4735 27.1592 53.0828 26.9001C52.9055 26.7766 52.7162 26.6701 52.5173 26.5708C51.887 26.2584 51.137 26.1035 50.2743 26.1035C49.5122 26.1035 48.822 26.2439 48.1942 26.5345C47.5711 26.8202 47.0319 27.21 46.579 27.7064C46.1285 28.2003 45.7762 28.7815 45.527 29.4449C45.273 30.1083 45.1484 30.8129 45.1484 31.5538V31.5902C45.1484 32.3989 45.285 33.1325 45.5558 33.7887C45.8266 34.4497 46.2004 35.0187 46.6869 35.4982C47.1709 35.98 47.7437 36.3553 48.4075 36.6144C49.0713 36.8735 49.7902 37.0042 50.5642 37.0042C51.5036 37.0042 52.3208 36.8347 53.0181 36.4885C53.7155 36.1446 54.305 35.6628 54.7987 35.0502L53.114 33.5442C52.7042 33.9219 52.304 34.1955 51.9182 34.3674C51.53 34.5369 51.0914 34.6192 50.6002 34.6192C49.9436 34.6192 49.3924 34.4497 48.9491 34.1035C48.5009 33.7597 48.211 33.2463 48.0696 32.5684H55.2827C55.2947 32.4231 55.3043 32.302 55.3115 32.1979C55.3163 32.0938 55.3187 31.9679 55.3187 31.8275V31.7863C55.3187 31.0454 55.2204 30.3335 55.0167 29.6483C54.9424 29.3601 54.8394 29.089 54.7172 28.8347ZM48.0336 30.7112C48.1511 30.0357 48.4003 29.4957 48.7789 29.0914C49.1599 28.687 49.6584 28.4861 50.2791 28.4861C50.8949 28.4861 51.3934 28.6894 51.7648 29.1011C52.1387 29.5078 52.3735 30.0454 52.4622 30.7112H48.0336Z" fill="#187A88"/>
		<path d="M82 27.8299C81.5806 27.3045 81.0558 26.8807 80.4231 26.5684C79.7929 26.256 79.0428 26.1011 78.1801 26.1011C77.4205 26.1011 76.7279 26.2415 76.1024 26.5321C75.7214 26.7064 75.3763 26.917 75.06 27.1664C74.8539 27.3287 74.6646 27.5078 74.4873 27.704C74.1781 28.0405 73.9193 28.4158 73.706 28.8347C73.603 29.0284 73.5119 29.2318 73.4305 29.4425C73.1812 30.1059 73.0566 30.8105 73.0566 31.5514V31.5877C73.0566 32.3965 73.1884 33.1301 73.4592 33.7863C73.73 34.4473 74.1086 35.0163 74.5927 35.4957C75.0744 35.9776 75.6495 36.3529 76.3133 36.612C76.9747 36.871 77.6937 37.0018 78.4677 37.0018C79.4119 37.0018 80.229 36.8323 80.9216 36.4861C81.6189 36.1422 82.2133 35.6604 82.7021 35.0478L81.0222 33.5417C80.6077 33.9195 80.2075 34.1931 79.8217 34.365C79.4358 34.5345 78.9949 34.6168 78.5084 34.6168C77.8518 34.6168 77.2982 34.4473 76.8525 34.1011C76.4092 33.7572 76.1144 33.2439 75.973 32.566H83.1862C83.1982 32.4207 83.2078 32.2996 83.215 32.1955C83.2221 32.0914 83.2269 31.9655 83.2269 31.825V31.7839C83.2269 31.043 83.1239 30.3311 82.925 29.6459C82.7261 28.9631 82.4169 28.3553 82 27.8299ZM75.9371 30.7112C76.0497 30.0357 76.3013 29.4957 76.6824 29.0914C77.061 28.687 77.5595 28.4861 78.1801 28.4861C78.8008 28.4861 79.2944 28.6894 79.6707 29.1011C80.0445 29.5078 80.277 30.0454 80.368 30.7112H75.9371Z" fill="#187A88"/>
		<path d="M100.416 34.2875C99.8095 34.2875 99.2607 34.1809 98.7646 33.9654C98.2686 33.7475 97.8372 33.4473 97.4682 33.0526C97.1016 32.6603 96.814 32.2003 96.6175 31.6724C96.4162 31.1422 96.3155 30.5635 96.3155 29.9364V29.9C96.3155 29.3117 96.4138 28.7572 96.6175 28.2439C96.8164 27.7281 97.0944 27.2802 97.4466 26.8952C97.8037 26.5102 98.2135 26.2027 98.688 25.9751C99.1577 25.7451 99.6633 25.6313 100.203 25.6313C100.591 25.6313 100.943 25.6652 101.267 25.7305C101.59 25.7935 101.89 25.8855 102.166 26.0017C102.444 26.1204 102.712 26.2657 102.968 26.4327C103.225 26.6022 103.481 26.8008 103.742 27.0187L105.616 24.7354C105.269 24.4351 104.907 24.1688 104.533 23.9339C104.159 23.6966 103.759 23.5029 103.333 23.348C102.906 23.1882 102.448 23.0695 101.95 22.9848C101.454 22.9 100.905 22.8589 100.299 22.8589C99.2679 22.8589 98.3165 23.0453 97.4538 23.4158C96.5911 23.7862 95.8434 24.2947 95.2108 24.9388C94.5805 25.5828 94.0845 26.3335 93.7322 27.1858C93.3752 28.0381 93.2002 28.9533 93.2002 29.9339V29.9703C93.2002 30.9872 93.3728 31.9243 93.7202 32.7838C94.0677 33.6434 94.5542 34.3843 95.1796 35.0114C95.8027 35.6337 96.5528 36.1228 97.4227 36.4763C98.2926 36.8274 99.2583 37.0017 100.316 37.0017C101.552 37.0017 102.652 36.7911 103.615 36.3674C104.569 35.9436 105.396 35.4376 106.093 34.8371L103.22 33.4618C102.46 34.009 101.528 34.2875 100.416 34.2875Z" fill="#187A88"/>
		<path d="M106.103 28.8926H100.224V31.4907H106.103V28.8926Z" fill="#187A88"/>
		<path d="M112.81 26.687C112.513 26.9364 112.252 27.2293 112.029 27.5732L111.739 31.5005C111.876 30.9218 112.106 30.4594 112.436 30.1059C112.995 29.5054 113.764 29.2075 114.744 29.2075H114.902V26.101C114.025 26.0598 113.328 26.2584 112.81 26.687Z" fill="#187A88"/>
		<path d="M111.593 26.2944H108.655V36.7689H111.593V26.2944Z" fill="#187A88"/>
		<path d="M119.889 22.5054H116.796V25.1422H119.889V22.5054Z" fill="#187A88"/>
		<path d="M119.813 26.2944H116.875V36.7689H119.813V26.2944Z" fill="#187A88"/>
		<path d="M130.062 22.5054V27.6506C129.715 27.2366 129.283 26.8758 128.778 26.5635C128.267 26.2511 127.618 26.101 126.832 26.101C126.211 26.101 125.621 26.2148 125.051 26.4497C124.486 26.687 123.987 27.0356 123.553 27.4957C123.12 27.9581 122.772 28.5272 122.509 29.1979C122.245 29.8686 122.113 30.641 122.113 31.5102V31.5514C122.113 32.423 122.245 33.1979 122.509 33.8637C122.772 34.5344 123.124 35.101 123.561 35.5659C124.002 36.0284 124.505 36.377 125.068 36.6119C125.636 36.8443 126.223 36.963 126.829 36.963C127.603 36.963 128.246 36.8032 128.751 36.4884C129.262 36.1688 129.698 35.7644 130.057 35.2753V36.7669H133V22.5054H130.062ZM130.103 31.5514C130.103 31.9848 130.033 32.3819 129.897 32.7427C129.76 33.1034 129.58 33.4109 129.357 33.6652C129.13 33.9218 128.866 34.118 128.564 34.2535C128.26 34.394 127.934 34.4618 127.589 34.4618C127.241 34.4618 126.913 34.394 126.609 34.2535C126.307 34.1155 126.041 33.9194 125.808 33.6652C125.578 33.4085 125.389 33.101 125.257 32.7427C125.121 32.3819 125.051 31.9872 125.051 31.5514V31.5102C125.051 31.0647 125.121 30.6652 125.257 30.3117C125.389 29.9557 125.576 29.6506 125.808 29.3964C126.038 29.1397 126.307 28.9436 126.609 28.808C126.913 28.67 127.239 28.5998 127.589 28.5998C127.934 28.5998 128.26 28.67 128.564 28.808C128.866 28.946 129.13 29.1422 129.357 29.3964C129.58 29.6531 129.76 29.9606 129.897 30.3189C130.033 30.6821 130.103 31.0792 130.103 31.5102V31.5514Z" fill="#187A88"/>
		<path d="M64.6088 18.7184C60.9447 17.7862 58.2248 14.4278 58.2248 10.4399C58.2248 8.52952 58.8359 6.72565 59.9646 5.24623C60.2714 4.84429 60.8657 4.81765 61.2179 5.18085L62.2388 6.22928L63.2333 2.60458L63.799 0.531938L63.8493 0.345497L63.8995 0.161478C63.9259 0.0670468 63.8421 -0.0201202 63.7486 0.00409285L57.7169 1.58279L58.7113 2.60458C59.0132 2.91451 59.0349 3.40361 58.7593 3.73533C57.2136 5.60216 56.3438 7.98473 56.3438 10.4375C56.3438 15.4036 59.7945 19.5707 64.4027 20.6167C64.5441 20.6482 64.6807 20.5441 64.6903 20.3964L64.7862 18.9605C64.7982 18.8491 64.7215 18.7474 64.6088 18.7184Z" fill="#A6D2A9"/>
		<path d="M73.7424 2.75935C72.3477 1.46395 70.6486 0.592284 68.8226 0.212139C68.6428 0.178241 68.4655 0.146764 68.2858 0.120129C68.1204 0.0934947 67.9575 0.0741242 67.7897 0.057175C67.7226 0.0499111 67.6555 0.0450685 67.5884 0.0378046C67.5597 0.032962 67.5285 0.032962 67.4973 0.0305407C67.3368 0.0184341 67.1738 0.0111702 67.0085 0.00632755H66.8935C66.8551 0.00390625 66.8168 0.00390625 66.7808 0.00390625C66.673 0.00390625 66.4981 0.00632755 66.3902 0.0111702C66.2968 0.0160128 66.2057 0.0184341 66.1122 0.0232767H66.1026C65.6282 0.0523324 65.2447 0.425214 65.1992 0.904633L65.0866 2.0717L65.0842 2.11044L64.1999 11.4034C64.164 11.7884 64.5019 12.1007 64.8781 12.0305L65.9708 11.8271C66.3399 11.7593 66.6754 12.0596 66.649 12.4373C66.649 12.4373 66.2225 18.9603 66.2225 18.9627L66.1913 19.4349C66.1913 19.4349 66.1386 20.2702 66.1122 20.6576C66.105 20.7642 66.1865 20.8586 66.292 20.8658C66.9366 20.9046 67.5932 20.861 68.2306 20.7666C68.8633 20.6746 69.4864 20.522 70.0902 20.3138C70.6822 20.108 71.2573 19.8489 71.8013 19.539C72.3429 19.2315 72.8557 18.8755 73.3326 18.4736C73.8095 18.0741 74.2504 17.6334 74.6482 17.1564C75.0484 16.677 75.4055 16.1612 75.7146 15.6189C76.0261 15.0692 76.2873 14.493 76.4958 13.8973C76.7067 13.2896 76.8625 12.6625 76.9583 12.0257C77.0374 11.5027 77.0757 10.9724 77.0757 10.4421C77.0781 7.52933 75.8632 4.7303 73.7424 2.75935ZM67.2337 17.3792L70.2316 8.19034C70.3682 7.77146 70.0112 7.35499 69.5798 7.4349L68.3289 7.66734C67.9359 7.73998 67.5884 7.39373 67.6579 6.99664L68.118 4.30899L68.3097 3.1855C68.4152 2.57533 69.0406 2.20245 69.6182 2.41068C70.663 2.79083 71.6335 3.38163 72.4699 4.15645C72.8964 4.55354 73.2775 4.98938 73.6106 5.45911C74.6338 6.89979 75.2018 8.64555 75.2018 10.4445C75.2018 15.0596 71.5209 18.8295 66.9845 18.9748C66.8527 18.9796 66.7569 18.8465 66.7976 18.7181L67.2337 17.3792Z" fill="#2F354D"/>
	</symbol>

	<symbol id="arrow-bottom">
		<!-- width="18" height="10" viewBox="0 0 18 10" -->
		<path d="M9 8.65625L1.6875 1.34375" stroke="#29354D" stroke-width="2" stroke-linecap="round" stroke-linejoin="round"/>
		<path d="M16.3125 1.34375L9 8.65625" stroke="#29354D" stroke-width="2" stroke-linecap="round" stroke-linejoin="round"/>
	</symbol>

	<symbol id="icon-star2">
		<!-- width="70" height="66" viewBox="0 0 70 66" -->
		<path d="M70 25.5766C70 26.1865 69.6354 26.8519 68.9063 27.5728L53.6358 42.2949L57.2536 63.0888C57.2817 63.2829 57.2957 63.5602 57.2957 63.9206C57.2957 64.5028 57.1484 64.9949 56.854 65.397C56.5595 65.799 56.1318 66 55.5709 66C55.038 66 54.4772 65.8336 53.8882 65.5009L35 55.6862L16.1118 65.5009C15.4948 65.8336 14.9339 66 14.4291 66C13.8401 66 13.3984 65.799 13.104 65.397C12.8095 64.9949 12.6623 64.5028 12.6623 63.9206C12.6623 63.7543 12.6903 63.477 12.7464 63.0888L16.3642 42.2949L1.05168 27.5728C0.350547 26.8242 0 26.1588 0 25.5766C0 24.5507 0.78527 23.913 2.35577 23.6635L23.4736 20.6276L32.9387 1.7051C33.4716 0.568382 34.1587 0 35 0C35.8413 0 36.5284 0.568382 37.0613 1.7051L46.5264 20.6276L67.6442 23.6635C69.2147 23.913 70 24.5507 70 25.5766Z" fill="#207D87"/>
		<path d="M35 7L43.229 24.2693L61.6296 27.0385L48.3148 40.4807L51.458 59.4615L35 50.5L18.542 59.4615L21.6852 40.4807L8.37042 27.0385L26.771 24.2693L35 7Z" fill="#F7FBF8"/>
		<mask id="mask0" mask-type="alpha" maskUnits="userSpaceOnUse" x="35" y="6" width="27" height="54">
		<rect x="35" y="6" width="27" height="54" fill="#C4C4C4"/>
		</mask>
		<g mask="url(#mask0)">
		<path d="M35 7L43.229 24.2693L61.6296 27.0385L48.3148 40.4807L51.458 59.4615L35 50.5L18.542 59.4615L21.6852 40.4807L8.37042 27.0385L26.771 24.2693L35 7Z" fill="#207D87"/>
		</g>
		<mask id="mask1" mask-type="alpha" maskUnits="userSpaceOnUse" x="8" y="6" width="27" height="54">
		<rect x="8" y="6" width="27" height="54" fill="#C4C4C4"/>
		</mask>
		<g mask="url(#mask1)">
		<path d="M35 7L43.229 24.2693L61.6296 27.0385L48.3148 40.4807L51.458 59.4615L35 50.5L18.542 59.4615L21.6852 40.4807L8.37042 27.0385L26.771 24.2693L35 7Z" fill="#207D87"/>
		</g>
	</symbol>

	<symbol id="icon-facebook">
		<!-- width="22" height="21" viewBox="0 0 22 21" -->
		<g clip-path="url(#clip0)">
			<path d="M21.0479 10.5C21.0479 4.70039 16.3983 0 10.6614 0C4.92447 0 0.274902 4.70039 0.274902 10.5C0.274902 15.7418 4.07246 20.0854 9.03849 20.8729V13.5352H6.4013V10.5H9.03849V8.18672C9.03849 5.55557 10.5883 4.10156 12.9618 4.10156C14.0978 4.10156 15.2866 4.30664 15.2866 4.30664V6.89062H13.9761C12.6859 6.89062 12.2843 7.70068 12.2843 8.53125V10.5H15.1649L14.7044 13.5352H12.2843V20.8729C17.2503 20.0854 21.0479 15.7418 21.0479 10.5Z"/>
		</g>
		<defs>
			<clipPath id="clip0">
				<rect width="20.7729" height="21" fill="white" transform="translate(0.274902)"/>
			</clipPath>
		</defs>
	</symbol>

	<symbol id="icon-twitter">
		<!-- width="22" height="21" viewBox="0 0 22 21" -->
		<path fill-rule="evenodd" clip-rule="evenodd" d="M11.283 0C5.54667 0 0.896484 4.70101 0.896484 10.5C0.896484 16.299 5.54667 21 11.283 21C17.0193 21 21.6694 16.299 21.6694 10.5C21.6694 4.70101 17.0193 0 11.283 0ZM10.9937 8.89786L10.9719 8.53454C10.9065 7.59286 11.4804 6.73275 12.3886 6.39908C12.7228 6.28045 13.2895 6.26562 13.66 6.36942C13.8053 6.41391 14.0814 6.56221 14.2775 6.69567L14.6335 6.94036L15.0258 6.81431C15.2438 6.74758 15.5344 6.63635 15.6652 6.56221C15.7887 6.49547 15.8976 6.4584 15.8976 6.48065C15.8976 6.6067 15.6288 7.03675 15.4036 7.27402C15.0985 7.60769 15.1857 7.63735 15.8032 7.41491C16.1737 7.28885 16.181 7.28885 16.1083 7.42974C16.0647 7.50388 15.8395 7.7634 15.5998 8.00067C15.1929 8.40848 15.1711 8.45297 15.1711 8.79405C15.1711 9.3205 14.9241 10.4179 14.6771 11.0185C14.2194 12.1455 13.2386 13.3096 12.2578 13.8954C10.8774 14.7185 9.03936 14.9261 7.49189 14.4441C6.97607 14.281 6.08972 13.8658 6.08972 13.7916C6.08972 13.7694 6.35853 13.7397 6.68546 13.7323C7.36838 13.7175 8.05131 13.5247 8.63251 13.1836L9.02483 12.9463L8.57439 12.7906C7.93506 12.5682 7.36112 12.0566 7.21582 11.5746C7.17222 11.4189 7.18676 11.4115 7.5936 11.4115L8.01498 11.4041L7.65899 11.2335C7.23761 11.0185 6.85256 10.6552 6.66367 10.2844C6.52563 10.0175 6.35127 9.34275 6.40212 9.29084C6.41665 9.2686 6.56922 9.31309 6.74358 9.37241C7.24488 9.55777 7.31026 9.51329 7.01966 9.20187C6.47477 8.63834 6.30768 7.80047 6.56922 7.00709L6.69273 6.65118L7.17222 7.13314C8.15302 8.10448 9.30817 8.68283 10.6304 8.85337L10.9937 8.89786Z"/>
	</symbol>

	<symbol id="icon-inst">
		<!-- width="22" height="21" viewBox="0 0 22 21" -->
		<path fill-rule="evenodd" clip-rule="evenodd" d="M10.904 0C5.16773 0 0.517578 4.70101 0.517578 10.5C0.517578 16.299 5.16773 21 10.904 21C16.6402 21 21.2904 16.299 21.2904 10.5C21.2904 4.70101 16.6402 0 10.904 0ZM8.6204 4.93383C9.21128 4.90664 9.40009 4.89999 10.9045 4.89999H10.9028C12.4077 4.89999 12.5958 4.90664 13.1867 4.93383C13.7764 4.96113 14.1792 5.05551 14.5323 5.19399C14.897 5.33691 15.2051 5.52825 15.5132 5.83975C15.8214 6.15102 16.0106 6.46346 16.1526 6.83178C16.2888 7.18785 16.3823 7.59479 16.41 8.19096C16.4365 8.7883 16.4434 8.97917 16.4434 10.5C16.4434 12.0209 16.4365 12.2113 16.41 12.8087C16.3823 13.4046 16.2888 13.8117 16.1526 14.1679C16.0106 14.5361 15.8214 14.8485 15.5132 15.1598C15.2055 15.4713 14.8969 15.6631 14.5326 15.8061C14.1802 15.9446 13.7772 16.039 13.1875 16.0663C12.5966 16.0935 12.4084 16.1001 10.9038 16.1001C9.39951 16.1001 9.21082 16.0935 8.61994 16.0663C8.03033 16.039 7.62768 15.9446 7.27523 15.8061C6.91113 15.6631 6.60207 15.4713 6.29428 15.1598C5.98627 14.8485 5.797 14.5361 5.6554 14.1677C5.51853 13.8117 5.42516 13.4047 5.39804 12.8086C5.37127 12.2112 5.36457 12.0209 5.36457 10.5C5.36457 8.97917 5.3715 8.78818 5.39793 8.19084C5.42447 7.5949 5.51795 7.18785 5.65528 6.83166C5.79723 6.46346 5.9865 6.15102 6.29463 5.83975C6.60253 5.52836 6.91159 5.33703 7.27593 5.19399C7.62814 5.05551 8.03068 4.96113 8.6204 4.93383Z"/>
		<path fill-rule="evenodd" clip-rule="evenodd" d="M10.4076 5.90911C10.5041 5.90896 10.6079 5.90901 10.7199 5.90906L10.9045 5.90911C12.3835 5.90911 12.5588 5.91448 13.1429 5.94132C13.683 5.96628 13.9761 6.05752 14.1714 6.13417C14.4299 6.23567 14.6142 6.357 14.808 6.553C15.0019 6.74901 15.1219 6.93568 15.2225 7.19701C15.2983 7.39418 15.3887 7.69052 15.4133 8.23652C15.4398 8.82686 15.4456 9.0042 15.4456 10.4987C15.4456 11.9932 15.4398 12.1706 15.4133 12.7609C15.3886 13.3069 15.2983 13.6032 15.2225 13.8004C15.1221 14.0617 15.0019 14.2478 14.808 14.4437C14.6141 14.6397 14.43 14.7611 14.1714 14.8626C13.9764 14.9396 13.683 15.0306 13.1429 15.0555C12.559 15.0824 12.3835 15.0882 10.9045 15.0882C9.42534 15.0882 9.25004 15.0824 8.66609 15.0555C8.12599 15.0303 7.83286 14.9391 7.63748 14.8624C7.37897 14.7609 7.19432 14.6396 7.00044 14.4436C6.80655 14.2476 6.68653 14.0614 6.5859 13.7999C6.51008 13.6028 6.41971 13.3064 6.39513 12.7604C6.36859 12.1701 6.36328 11.9928 6.36328 10.4973C6.36328 9.00186 6.36859 8.82546 6.39513 8.23512C6.41983 7.68912 6.51008 7.39278 6.5859 7.19538C6.6863 6.93404 6.80655 6.74737 7.00044 6.55137C7.19432 6.35537 7.37897 6.23403 7.63748 6.1323C7.83274 6.0553 8.12599 5.9643 8.66609 5.93922C9.17711 5.91588 9.37514 5.90888 10.4076 5.90771V5.90911ZM13.8614 6.83897C13.4944 6.83897 13.1967 7.13978 13.1967 7.5111C13.1967 7.8823 13.4944 8.18346 13.8614 8.18346C14.2284 8.18346 14.5262 7.8823 14.5262 7.5111C14.5262 7.1399 14.2284 6.83874 13.8614 6.83874V6.83897ZM8.05975 10.5009C8.05975 8.91269 9.33342 7.62505 10.9044 7.62499C12.4754 7.62499 13.7488 8.91265 13.7488 10.5009C13.7488 12.0891 12.4755 13.3761 10.9045 13.3761C9.33348 13.3761 8.05975 12.0891 8.05975 10.5009Z"/>
		<path d="M10.9046 8.6333C11.9243 8.6333 12.7511 9.46899 12.7511 10.5C12.7511 11.5309 11.9243 12.3667 10.9046 12.3667C9.88476 12.3667 9.05811 11.5309 9.05811 10.5C9.05811 9.46899 9.88476 8.6333 10.9046 8.6333Z"/>
	</symbol>

	<symbol id="icon-more">
		<!-- width="41" height="8" viewBox="0 0 41 8" -->
		<path d="M40.3536 4.35356C40.5488 4.15829 40.5488 3.84171 40.3536 3.64645L37.1716 0.464469C36.9763 0.269207 36.6597 0.269207 36.4645 0.464469C36.2692 0.659731 36.2692 0.976314 36.4645 1.17158L39.2929 4L36.4645 6.82843C36.2692 7.02369 36.2692 7.34027 36.4645 7.53554C36.6597 7.7308 36.9763 7.7308 37.1716 7.53554L40.3536 4.35356ZM-4.37114e-08 4.5L40 4.5L40 3.5L4.37114e-08 3.5L-4.37114e-08 4.5Z"/>
	</symbol>

	<symbol id="icon-small-more">
		<!-- width="21" height="8" viewBox="0 0 21 8" -->
		<path d="M20.3536 4.35355C20.5488 4.15829 20.5488 3.84171 20.3536 3.64644L17.1716 0.464465C16.9763 0.269202 16.6597 0.269202 16.4645 0.464465C16.2692 0.659727 16.2692 0.976309 16.4645 1.17157L19.2929 4L16.4645 6.82843C16.2692 7.02369 16.2692 7.34027 16.4645 7.53553C16.6597 7.73079 16.9763 7.73079 17.1716 7.53553L20.3536 4.35355ZM4.37114e-08 4.5L20 4.5L20 3.5L-4.37114e-08 3.5L4.37114e-08 4.5Z" fill="#5D1324"/>
	</symbol>

	<symbol id="icon-quote">
		<!-- width="46" height="40" viewBox="0 0 46 40" -->
		<path d="M36.9449 40C41.661 40 45.4839 35.9297 45.4839 30.9091C45.4839 25.8879 41.661 21.8182 36.9449 21.8182C28.4065 21.8182 34.099 4.24243 45.4839 4.24243L45.4839 3.8147e-06C25.1658 5.62266e-06 17.2026 40 36.9449 40ZM12.3453 40C17.0614 40 20.8843 35.9297 20.8843 30.9091C20.8843 25.8879 17.0614 21.8182 12.3453 21.8182C3.80695 21.8182 9.49941 4.24243 20.8843 4.24243L20.8843 6.00364e-06C0.56625 7.81161e-06 -7.39698 40 12.3453 40Z" fill="#5D1324"/>
	</symbol>

	<symbol id="icon-dispatch">
		<!-- width="41" height="41" viewBox="0 0 41 41" -->
		<path d="M33.6187 13.6615L35.3426 11.9373C36.2791 11.001 36.2791 9.47706 35.3426 8.54021C34.4061 7.60367 32.8821 7.60367 31.9455 8.54021L30.105 10.3808C28.185 9.04351 25.9963 8.11792 23.7031 7.67374V5.28516H25.3047C25.747 5.28516 26.1055 4.92668 26.1055 4.48438V2.40234C26.1055 1.07761 25.0279 0 23.7031 0H17.2969C15.9721 0 14.8945 1.07761 14.8945 2.40234V4.48438C14.8945 4.92668 15.253 5.28516 15.6953 5.28516H17.2969V7.67374C15.004 8.11761 12.815 9.04351 10.895 10.3808L9.05446 8.54021C8.11823 7.60367 6.59425 7.60367 5.65739 8.54021C4.72086 9.47675 4.72086 11.0007 5.65739 11.9373L7.38126 13.6615C4.99174 16.6378 3.68359 20.3452 3.68359 24.1836C3.68359 33.4561 11.2275 41 20.5 41C29.7725 41 37.3164 33.4561 37.3164 24.1836C37.3164 20.3452 36.0083 16.6378 33.6187 13.6615ZM33.0779 9.67256C33.3904 9.36038 33.8981 9.36069 34.2103 9.67256C34.5221 9.98474 34.5221 10.4927 34.2103 10.8049L32.5555 12.4593C32.1826 12.0765 31.7916 11.7114 31.385 11.3658L33.0779 9.67256ZM16.4961 2.40234C16.4961 1.96066 16.8552 1.60156 17.2969 1.60156H23.7031C24.1448 1.60156 24.5039 1.96066 24.5039 2.40234V3.68359H16.4961V2.40234ZM22.1016 5.28516V7.44289C21.0402 7.34341 19.9601 7.34341 18.8984 7.44289V5.28516H22.1016ZM6.78975 9.67256C7.10193 9.36069 7.60992 9.36038 7.9221 9.67256L9.61501 11.3658C9.20836 11.7114 8.81735 12.0765 8.44449 12.4593L6.78975 10.8049C6.47788 10.4927 6.47788 9.98474 6.78975 9.67256ZM20.5 39.3984C12.1106 39.3984 5.28516 32.573 5.28516 24.1836C5.28516 20.4828 6.62865 16.9171 9.06791 14.1429C9.73981 13.3787 10.4896 12.6805 11.2963 12.0668C13.318 10.5284 15.711 9.51585 18.2165 9.13829C18.9663 9.02599 19.7346 8.96875 20.5 8.96875C21.2654 8.96875 22.0337 9.02599 22.7832 9.13829C25.289 9.51585 27.682 10.5284 29.704 12.0668C30.5104 12.6805 31.2602 13.3787 31.9321 14.1429C34.3713 16.9171 35.7148 20.4828 35.7148 24.1836C35.7148 32.573 28.8894 39.3984 20.5 39.3984Z" fill="#5D1324"/>
		<path d="M20.5 26.5859C21.8247 26.5859 22.9023 25.5083 22.9023 24.1836C22.9023 23.1398 22.2329 22.2495 21.3008 21.9189V16.1758C21.3008 15.7335 20.9423 15.375 20.5 15.375C20.0577 15.375 19.6992 15.7335 19.6992 16.1758V21.9189C18.7671 22.2495 18.0977 23.1398 18.0977 24.1836C18.0977 25.5083 19.1753 26.5859 20.5 26.5859ZM20.5 23.3828C20.9417 23.3828 21.3008 23.7419 21.3008 24.1836C21.3008 24.6253 20.9417 24.9844 20.5 24.9844C20.0583 24.9844 19.6992 24.6253 19.6992 24.1836C19.6992 23.7419 20.0583 23.3828 20.5 23.3828Z" fill="#5D1324"/>
		<path d="M29.0305 15.7342C29.018 15.7195 29.0055 15.7048 28.9914 15.691C28.9764 15.6757 28.9604 15.6619 28.9445 15.6481C27.5331 14.2518 25.7895 13.2186 23.8974 12.6599C23.4729 12.5348 23.0278 12.7769 22.9027 13.2011C22.7775 13.6252 23.0196 14.0707 23.4438 14.1958C24.8458 14.6099 26.1536 15.3256 27.2685 16.2813L26.7283 16.8215C26.4158 17.1343 26.4158 17.6413 26.7283 17.9541C26.8847 18.1105 27.0896 18.1887 27.2948 18.1887C27.4996 18.1887 27.7045 18.1105 27.8609 17.9541L28.4024 17.4127C29.8513 19.0974 30.7118 21.1713 30.8795 23.3816H30.1094C29.6671 23.3816 29.3086 23.7404 29.3086 24.1824C29.3086 24.6247 29.6671 24.9832 30.1094 24.9832H30.8795C30.7118 27.1938 29.8513 29.2674 28.4024 30.9521L27.8609 30.4107C27.5481 30.0982 27.0411 30.0982 26.7283 30.4107C26.4155 30.7235 26.4155 31.2305 26.7283 31.5433L27.2697 32.0848C25.585 33.5337 23.5111 34.3942 21.3008 34.5622V33.7918C21.3008 33.3495 20.9423 32.991 20.5 32.991C20.0577 32.991 19.6992 33.3495 19.6992 33.7918V34.5619C17.4889 34.3942 15.415 33.5337 13.7303 32.0848L14.2717 31.5433C14.5845 31.2305 14.5845 30.7235 14.2717 30.4107C13.9589 30.0982 13.4519 30.0982 13.1391 30.4107L12.5976 30.9521C11.1487 29.2674 10.2882 27.1935 10.1205 24.9832H10.8906C11.3329 24.9832 11.6914 24.6247 11.6914 24.1824C11.6914 23.7401 11.3329 23.3816 10.8906 23.3816H10.1205C10.2882 21.1713 11.1487 19.0974 12.5976 17.4127L13.1391 17.9541C13.2955 18.1105 13.5004 18.1887 13.7052 18.1887C13.9104 18.1887 14.1153 18.1105 14.2717 17.9541C14.5842 17.6413 14.5842 17.1343 14.2717 16.8215L13.7315 16.2813C14.8464 15.3253 16.1542 14.6099 17.5562 14.1958C17.9804 14.0707 18.2225 13.6252 18.0973 13.2011C17.9722 12.7769 17.5274 12.5351 17.1026 12.6599C15.2108 13.2183 13.4678 14.2511 12.0568 15.6469C12.0402 15.661 12.0239 15.6753 12.0086 15.6907C11.9948 15.7044 11.9826 15.7188 11.9701 15.7332C9.72449 17.9998 8.48828 20.9977 8.48828 24.1824C8.48828 27.3668 9.72449 30.3644 11.9695 32.6306C11.982 32.6453 11.9945 32.66 12.0086 32.6738C12.0224 32.6879 12.0367 32.7001 12.0511 32.7126C14.3177 34.9579 17.3153 36.1941 20.5 36.1941C23.6844 36.1941 26.682 34.9582 28.9482 32.7132C28.9629 32.7004 28.9776 32.6879 28.9914 32.6738C29.0052 32.6604 29.0174 32.6457 29.0299 32.6316C31.2755 30.365 32.5117 27.3671 32.5117 24.1824C32.5117 20.998 31.2755 18.0004 29.0305 15.7342Z" fill="#5D1324"/>
		<path d="M20.5 13.7734C20.942 13.7734 21.3008 13.4146 21.3008 12.9727C21.3008 12.5307 20.942 12.1719 20.5 12.1719C20.058 12.1719 19.6992 12.5307 19.6992 12.9727C19.6992 13.4146 20.058 13.7734 20.5 13.7734Z" fill="#5D1324"/>
	</symbol>

	<symbol id="icon-arrows">
		<!-- width="13" height="7" viewBox="0 0 13 7" -->
		<path d="M1.17187 1L6.08671 6L11.0016 1" fill="none" stroke-width="2" stroke-linecap="round" stroke-linejoin="round"/>
	</symbol>

	<symbol id="icon-checked">
		<!-- width="13" height="7" viewBox="0 0 13 7" -->
		<path d="M1.17187 1L6.08671 6L11.0016 1" stroke="white" stroke-width="2" stroke-linecap="round" stroke-linejoin="round"/>
	</symbol>

	<symbol id="icon-service1">
		<!-- width="50" height="58" viewBox="0 0 50 58" -->
		<path d="M49.9872 50.1362L46.4103 12.7387C46.3337 11.9084 45.58 11.2798 44.6985 11.2798H37.3403C37.2381 5.0409 31.745 0 25 0C18.255 0 12.7619 5.0409 12.6597 11.2798H5.30148C4.40726 11.2798 3.66633 11.9084 3.58968 12.7387L0.0127749 50.1362C0.0127749 50.1836 0 50.2311 0 50.2785C0 54.5366 4.20286 58 9.3766 58H40.6234C45.7971 58 50 54.5366 50 50.2785C50 50.2311 50 50.1836 49.9872 50.1362ZM25 3.20245C29.8416 3.20245 33.789 6.80818 33.8912 11.2798H16.1088C16.211 6.80818 20.1584 3.20245 25 3.20245ZM40.6234 54.7975H9.3766C6.13183 54.7975 3.50026 52.8049 3.44916 50.3497L6.87276 14.4941H12.6469V19.3571C12.6469 20.2466 13.4134 20.9583 14.3715 20.9583C15.3296 20.9583 16.0961 20.2466 16.0961 19.3571V14.4941H33.8912V19.3571C33.8912 20.2466 34.6576 20.9583 35.6157 20.9583C36.5738 20.9583 37.3403 20.2466 37.3403 19.3571V14.4941H43.1145L46.5508 50.3497C46.4997 52.8049 43.8554 54.7975 40.6234 54.7975Z" fill="black"/>
	</symbol>

	<symbol id="icon-service2">
		<!-- width="54" height="58" viewBox="0 0 54 58" -->
		<path d="M15.4122 38.1886H47.3703C50.994 38.1886 53.9502 35.2324 53.9502 31.6087V18.1627C53.9502 18.1507 53.9502 18.1269 53.9502 18.115C53.9502 18.0792 53.9502 18.0554 53.9502 18.0196C53.9502 17.9958 53.9502 17.9719 53.9383 17.9481C53.9383 17.9243 53.9264 17.8885 53.9264 17.8647C53.9264 17.8408 53.9144 17.817 53.9144 17.7931C53.9025 17.7693 53.9025 17.7455 53.8906 17.7097C53.8787 17.6859 53.8787 17.662 53.8668 17.6382C53.8548 17.6143 53.8548 17.5905 53.8429 17.5667C53.831 17.5428 53.8191 17.519 53.8072 17.4832C53.7952 17.4594 53.7833 17.4355 53.7714 17.4236C53.7595 17.3998 53.7476 17.3759 53.7356 17.3521C53.7237 17.3282 53.7118 17.3163 53.6999 17.2925C53.688 17.2686 53.6641 17.2448 53.6522 17.221C53.6403 17.1971 53.6284 17.1852 53.6045 17.1614C53.5926 17.1375 53.5688 17.1256 53.5568 17.1018C53.5449 17.0779 53.5211 17.066 53.5092 17.0422C53.4972 17.0183 53.4734 17.0064 53.4615 16.9945C53.4376 16.9706 53.4257 16.9587 53.4019 16.9349C53.378 16.923 53.3661 16.8991 53.3423 16.8872C53.3184 16.8753 53.2946 16.8514 53.2708 16.8395C53.2469 16.8276 53.235 16.8157 53.2112 16.8038C53.1873 16.7918 53.1635 16.7799 53.1396 16.7561C53.1158 16.7442 53.0919 16.7322 53.0681 16.7203C53.0443 16.7084 53.0204 16.6965 52.9966 16.6846C52.9727 16.6726 52.9489 16.6607 52.9251 16.6488C52.9012 16.6369 52.8774 16.6369 52.8535 16.625C52.8297 16.613 52.7939 16.6011 52.7701 16.6011C52.7463 16.6011 52.7224 16.5892 52.7105 16.5892C52.6747 16.5773 52.6509 16.5773 52.6151 16.5773C52.6032 16.5773 52.5913 16.5654 52.5675 16.5654L12.0626 10.9748V5.3246C12.0626 5.265 12.0626 5.2054 12.0507 5.15772C12.0507 5.1458 12.0507 5.13388 12.0388 5.11004C12.0388 5.07428 12.0269 5.03852 12.0269 5.00276C12.0149 4.967 12.0149 4.94316 12.003 4.9074C12.003 4.88356 11.9911 4.87164 11.9911 4.8478C11.9792 4.81204 11.9673 4.77628 11.9553 4.74052C11.9553 4.72859 11.9434 4.70475 11.9434 4.69283C11.9315 4.65707 11.9196 4.63323 11.8957 4.59747C11.8838 4.58555 11.8838 4.56171 11.8719 4.54979C11.86 4.52595 11.8481 4.50211 11.8242 4.47827C11.8123 4.45443 11.8004 4.44251 11.7885 4.41867C11.7765 4.39483 11.7646 4.38291 11.7527 4.35907C11.7408 4.33523 11.7169 4.31139 11.705 4.28755C11.6931 4.27563 11.6812 4.26371 11.6693 4.25179C11.6454 4.22795 11.6216 4.20411 11.5977 4.18027C11.5858 4.16835 11.5739 4.15643 11.562 4.14451C11.5381 4.12066 11.5143 4.09682 11.4785 4.07298C11.4666 4.06106 11.4428 4.04914 11.4308 4.03722C11.407 4.01338 11.3832 4.00146 11.3593 3.97762C11.3236 3.95378 11.2878 3.92994 11.264 3.91802C11.252 3.9061 11.2401 3.9061 11.2282 3.89418C11.1805 3.87034 11.1209 3.8465 11.0732 3.82266L2.28805 0.127397C1.46556 -0.218289 0.523864 0.163158 0.178178 0.985652C-0.167507 1.80815 0.213939 2.74984 1.03643 3.09553L8.83224 6.3855V13.6807V14.8369V23.7056V31.6325V41.6455C8.83224 44.9831 11.3355 47.7486 14.5659 48.1658C13.9818 49.1433 13.6361 50.2876 13.6361 51.5035C13.6361 55.0914 16.5565 58 20.1326 58C23.7087 58 26.6291 55.0795 26.6291 51.5035C26.6291 50.3114 26.3073 49.179 25.7351 48.2254H40.2062C39.634 49.1909 39.3122 50.3114 39.3122 51.5035C39.3122 55.0914 42.2326 58 45.8087 58C49.3848 58 52.3052 55.0795 52.3052 51.5035C52.3052 47.9274 49.3848 45.007 45.8087 45.007H15.4122C13.5526 45.007 12.0507 43.4931 12.0507 41.6455V37.2827C13.0282 37.8548 14.1844 38.1886 15.4122 38.1886ZM23.4226 51.4915C23.4226 53.3034 21.9445 54.7696 20.1445 54.7696C18.3446 54.7696 16.8665 53.2915 16.8665 51.4915C16.8665 49.6916 18.3446 48.2135 20.1445 48.2135C21.9445 48.2135 23.4226 49.6797 23.4226 51.4915ZM49.0987 51.4915C49.0987 53.3034 47.6206 54.7696 45.8206 54.7696C44.0207 54.7696 42.5426 53.2915 42.5426 51.4915C42.5426 49.6916 44.0207 48.2135 45.8206 48.2135C47.6206 48.2135 49.0987 49.6797 49.0987 51.4915ZM47.3703 34.9701H15.4122C13.5526 34.9701 12.0507 33.4563 12.0507 31.6087V23.6817V14.8131V14.2171L50.7318 19.5454V31.5967C50.7318 33.4682 49.2179 34.9701 47.3703 34.9701Z" fill="black"/>
	</symbol>

	<symbol id="icon-service3">
		<!-- width="58" height="58" viewBox="0 0 58 58" -->
		<path d="M55.0312 22.9134L50.9602 22.2228C50.5361 20.8537 49.9909 19.5331 49.3245 18.273L51.7235 14.9168C52.7413 13.4871 52.5838 11.5365 51.3358 10.3006L47.7252 6.69002C47.0467 6.01152 46.1501 5.63593 45.1929 5.63593C44.4417 5.63593 43.7269 5.86613 43.1211 6.30231L39.7528 8.70129C38.4443 8.01068 37.0752 7.44122 35.6576 7.01716L34.9791 2.99462C34.6883 1.26202 33.198 0.00195312 31.4412 0.00195312H26.3403C24.5835 0.00195312 23.0932 1.26202 22.8024 2.99462L22.0997 7.11409C20.7427 7.53815 19.4221 8.09549 18.162 8.77399L14.8301 6.37501C14.2243 5.93883 13.4973 5.70862 12.7461 5.70862C11.7889 5.70862 10.8802 6.08422 10.2138 6.76272L6.59114 10.3733C5.3553 11.6091 5.18568 13.5598 6.20343 14.9895L8.62664 18.3941C7.96026 19.6663 7.42715 20.987 7.01521 22.3561L2.99267 23.0346C1.26007 23.3254 0 24.8157 0 26.5725V31.6734C0 33.4302 1.26007 34.9205 2.99267 35.2113L7.11213 35.914C7.5362 37.271 8.09354 38.5916 8.77204 39.8517L6.38517 43.1715C5.36742 44.6012 5.52493 46.5519 6.77288 47.7877L10.3835 51.3983C11.062 52.0768 11.9586 52.4524 12.9157 52.4524C13.6669 52.4524 14.3818 52.2222 14.9876 51.786L18.3922 49.3628C19.6159 50.005 20.9002 50.526 22.2209 50.9379L22.8994 55.0089C23.1902 56.7415 24.6804 58.0016 26.4373 58.0016H31.5502C33.3071 58.0016 34.7974 56.7415 35.0881 55.0089L35.7788 50.9379C37.1479 50.5139 38.4685 49.9686 39.7286 49.3022L43.0848 51.7012C43.6906 52.1374 44.4175 52.3676 45.1687 52.3676C46.1259 52.3676 47.0225 51.992 47.701 51.3135L51.3116 47.7029C52.5474 46.4671 52.717 44.5164 51.6993 43.0867L49.3003 39.7184C49.9667 38.4462 50.524 37.1256 50.936 35.7686L55.007 35.0901C56.7396 34.7993 57.9996 33.309 57.9996 31.5522V26.4513C58.0239 24.6945 56.7638 23.2042 55.0312 22.9134ZM54.7525 31.5522C54.7525 31.7097 54.6435 31.843 54.486 31.8672L49.3972 32.7153C48.7551 32.8244 48.2462 33.2969 48.0887 33.9148C47.6283 35.6959 46.9255 37.4043 45.9805 38.9915C45.6534 39.5488 45.6776 40.2394 46.0532 40.7725L49.0459 44.9889C49.1307 45.1101 49.1186 45.2918 49.0095 45.4009L45.3989 49.0115C45.3141 49.0963 45.2293 49.1084 45.1687 49.1084C45.096 49.1084 45.0354 49.0842 44.987 49.0478L40.7827 46.0551C40.2617 45.6795 39.559 45.6553 39.0016 45.9824C37.4144 46.9275 35.7061 47.6302 33.925 48.0906C33.295 48.2481 32.8224 48.7691 32.7255 49.3992L31.8653 54.4879C31.841 54.6454 31.7078 54.7545 31.5502 54.7545H26.4494C26.2919 54.7545 26.1586 54.6454 26.1344 54.4879L25.2862 49.3992C25.1772 48.757 24.7047 48.2481 24.0868 48.0906C22.3542 47.6423 20.6821 46.9517 19.1192 46.0551C18.8647 45.9097 18.5739 45.837 18.2953 45.837C17.9681 45.837 17.6289 45.934 17.3502 46.1399L13.1096 49.1568C13.049 49.1932 12.9884 49.2174 12.9278 49.2174C12.8794 49.2174 12.7825 49.2053 12.6976 49.1205L9.08705 45.5099C8.97801 45.4009 8.96589 45.2312 9.0507 45.098L12.0313 40.9179C12.4069 40.3848 12.4311 39.6821 12.104 39.1247C11.1589 37.5497 10.4319 35.8413 9.97153 34.0602C9.8019 33.4423 9.29303 32.9698 8.66299 32.8607L3.53789 31.9884C3.38038 31.9641 3.27134 31.8309 3.27134 31.6734V26.5725C3.27134 26.415 3.38038 26.2817 3.53789 26.2575L8.59029 25.4094C9.23245 25.3003 9.75344 24.8278 9.91095 24.1977C10.3592 22.4167 11.0499 20.6962 11.9828 19.109C12.3099 18.5517 12.2736 17.861 11.898 17.34L8.88108 13.0994C8.79627 12.9783 8.80838 12.7965 8.91743 12.6875L12.528 9.07689C12.6128 8.99208 12.6976 8.97996 12.7582 8.97996C12.8309 8.97996 12.8915 9.00419 12.94 9.04054L17.12 12.0211C17.6531 12.3967 18.3558 12.4209 18.9132 12.0938C20.4883 11.1487 22.1966 10.4218 23.9777 9.96136C24.5956 9.79174 25.0682 9.28286 25.1772 8.65283L26.0496 3.52773C26.0738 3.37022 26.2071 3.26118 26.3646 3.26118H31.4654C31.6229 3.26118 31.7562 3.37022 31.7805 3.52773L32.6286 8.58013C32.7376 9.22228 33.2102 9.74327 33.8402 9.90078C35.6697 10.3612 37.4144 11.076 39.038 12.0332C39.5953 12.3603 40.2859 12.3361 40.819 11.9605L44.9991 8.95573C45.0597 8.91938 45.1203 8.89515 45.1808 8.89515C45.2293 8.89515 45.3262 8.90726 45.411 8.99208L49.0216 12.6027C49.1307 12.7117 49.1428 12.8813 49.058 13.0146L46.0653 17.2189C45.6897 17.7399 45.6655 18.4426 45.9926 19C46.9377 20.5872 47.6404 22.2955 48.1008 24.0766C48.2583 24.7066 48.7793 25.1791 49.4093 25.2761L54.4981 26.1363C54.6556 26.1605 54.7646 26.2938 54.7646 26.4513V31.5522H54.7525Z" fill="black"/>
		<path d="M29.0047 16.4785C22.0985 16.4785 16.4888 22.0883 16.4888 28.9944C16.4888 35.9006 22.0985 41.5103 29.0047 41.5103C35.9108 41.5103 41.5206 35.9006 41.5206 28.9944C41.5206 22.0883 35.9108 16.4785 29.0047 16.4785ZM29.0047 38.239C23.9038 38.239 19.7601 34.0953 19.7601 28.9944C19.7601 23.8936 23.9038 19.7499 29.0047 19.7499C34.1055 19.7499 38.2492 23.8936 38.2492 28.9944C38.2492 34.0953 34.1055 38.239 29.0047 38.239Z" fill="black"/>
	</symbol>

	<symbol id="icon-service4">
		<!-- width="58" height="58" viewBox="0 0 58 58" -->
		<path d="M49.4985 8.50084C44.0215 3.02387 36.7472 0 28.9993 0C21.2514 0 13.9771 3.02387 8.50016 8.50084C-2.06517 19.0662 -2.83025 35.9464 6.5814 47.3861C5.28198 50.0456 3.75183 51.8187 2.01523 52.6688C0.9587 53.191 0.363641 54.3325 0.533658 55.4983C0.715819 56.6763 1.61448 57.5871 2.79245 57.7693C3.43609 57.8664 4.1283 57.9271 4.8448 57.9271C8.403 57.9271 12.1434 56.7006 15.2644 54.5511C19.4662 56.8099 24.1903 58 28.9993 58C36.7472 58 44.0215 54.9883 49.4985 49.5113C54.9754 44.0343 57.9872 36.7479 57.9872 29.0121C57.9872 21.2764 54.9754 13.9778 49.4985 8.50084ZM47.179 47.1796C42.3213 52.0373 35.8607 54.709 28.9993 54.709C24.4089 54.709 19.9034 53.4824 15.9809 51.175C15.7259 51.0293 15.4344 50.9443 15.1551 50.9443C14.8029 50.9443 14.4386 51.0657 14.1471 51.2843C10.4311 54.1625 6.69069 54.5875 5.05125 54.624C7.00644 53.1667 8.64588 50.9079 10.0182 47.7626C10.2732 47.1796 10.1639 46.4996 9.73885 46.0138C0.75225 35.8614 1.22587 20.3899 10.8197 10.7961C15.6773 5.93844 22.1379 3.26675 28.9993 3.26675C35.8607 3.26675 42.3213 5.93844 47.179 10.7961C57.21 20.8392 57.21 37.1608 47.179 47.1796Z" fill="black"/>
		<path d="M41.1463 19.4297H16.8582C15.9474 19.4297 15.2188 20.1583 15.2188 21.0691C15.2188 21.9799 15.9474 22.7086 16.8582 22.7086H41.1463C42.0571 22.7086 42.7858 21.9799 42.7858 21.0691C42.7858 20.1583 42.045 19.4297 41.1463 19.4297Z" fill="black"/>
		<path d="M41.1463 27.3594H16.8582C15.9474 27.3594 15.2188 28.088 15.2188 28.9988C15.2188 29.9096 15.9474 30.6383 16.8582 30.6383H41.1463C42.0571 30.6383 42.7858 29.9096 42.7858 28.9988C42.7858 28.088 42.045 27.3594 41.1463 27.3594Z" fill="black"/>
		<path d="M41.1463 35.291H16.8582C15.9474 35.291 15.2188 36.0197 15.2188 36.9305C15.2188 37.8413 15.9474 38.5699 16.8582 38.5699H41.1463C42.0571 38.5699 42.7858 37.8413 42.7858 36.9305C42.7858 36.0197 42.045 35.291 41.1463 35.291Z" fill="black"/>
	</symbol>

</svg>