<svg width="18" height="16" viewBox="0 0 18 16" fill="none" xmlns="http://www.w3.org/2000/svg">
<path d="M17.2939 15.9416V9.80478C17.2939 6.5169 15.539 4.98695 13.198 4.98695C11.309 4.98695 10.463 6.02592 9.99199 6.75489V5.23794H6.43401C6.48101 6.24291 6.43401 15.9416 6.43401 15.9416H9.99199V9.96378C9.99199 9.64479 10.015 9.3248 10.109 9.09681C10.366 8.45783 10.951 7.79585 11.934 7.79585C13.222 7.79585 13.737 8.77682 13.737 10.2158V15.9426L17.2939 15.9416ZM2.68503 3.777C3.92503 3.777 4.69802 2.95402 4.69802 1.92706C4.67502 0.877097 3.92503 0.078125 2.70803 0.078125C1.49104 0.078125 0.696045 0.877097 0.696045 1.92706C0.696045 2.95502 1.46804 3.777 2.66303 3.777H2.68503ZM4.46402 15.9416V5.23794H0.907044V15.9416H4.46402Z" fill="white"/>
</svg>
