<svg width="18" height="18" viewBox="0 0 18 18" fill="none" xmlns="http://www.w3.org/2000/svg">
<path d="M15.0568 0.929932H2.94283C1.80283 0.929932 0.923828 1.80894 0.923828 2.94896V15.0621C0.923828 16.2021 1.80283 17.0811 2.94283 17.0811H15.0558C16.1958 17.0811 17.0748 16.2021 17.0748 15.0621V2.94896C17.0758 1.80794 16.1958 0.929932 15.0568 0.929932ZM9.01183 5.83299C10.8028 5.83299 12.2548 7.24 12.2548 8.97503C12.2548 10.71 10.8028 12.1171 9.01183 12.1171C7.22183 12.1171 5.76983 10.709 5.76983 8.97503C5.76983 7.239 7.22183 5.83299 9.01183 5.83299ZM15.0568 14.5571C15.0568 14.9111 14.9058 15.0621 14.5518 15.0621H3.44783C3.09483 15.0621 2.94283 14.9111 2.94283 14.5571V7.49101L4.20083 7.76501C4.06583 8.20402 3.99283 8.66802 3.99283 9.15003C3.99283 11.8341 6.24083 14.0131 9.01083 14.0131C11.7828 14.0131 14.0298 11.8351 14.0298 9.15003C14.0298 8.66802 13.9568 8.20402 13.8218 7.76501L15.0558 7.49101V14.5571H15.0568ZM15.0568 5.47198C15.0568 5.75099 14.8308 5.97699 14.5518 5.97699H12.5328C12.2538 5.97699 12.0278 5.75099 12.0278 5.47198V3.45296C12.0278 3.17396 12.2538 2.94796 12.5328 2.94796H14.5518C14.8308 2.94796 15.0568 3.17396 15.0568 3.45296V5.47198Z" fill="white"/>
</svg>
