<svg width="18" height="16" viewBox="0 0 18 16" fill="none" xmlns="http://www.w3.org/2000/svg">
<path d="M11.226 0.885848C9.63602 1.46485 8.63103 2.95685 8.74503 4.58985L8.78303 5.21986L8.14703 5.14285C5.83203 4.84685 3.80904 3.84385 2.09104 2.15885L1.25104 1.32285L1.03604 1.93985C0.578044 3.31585 0.871043 4.76985 1.82504 5.74786C2.33404 6.28786 2.21904 6.36486 1.34204 6.04386C1.03704 5.94086 0.769044 5.86386 0.744044 5.90286C0.655044 5.99286 0.960043 7.16286 1.20204 7.62686C1.53304 8.27086 2.20704 8.89986 2.94504 9.27386L3.56904 9.56986L2.83004 9.58086C2.11804 9.58086 2.09204 9.59386 2.16904 9.86486C2.42304 10.7009 3.42804 11.5889 4.54804 11.9749L5.33703 12.2449L4.65003 12.6569C3.63204 13.2499 2.43604 13.5839 1.24004 13.6079C0.667044 13.6209 0.196045 13.6719 0.196045 13.7109C0.196045 13.8389 1.74904 14.5589 2.65104 14.8429C5.36103 15.6789 8.58003 15.3179 10.997 13.8909C12.715 12.8749 14.432 10.8549 15.234 8.89886C15.667 7.85786 16.099 5.95386 16.099 5.04085C16.099 4.44885 16.137 4.37185 16.849 3.66485C17.269 3.25285 17.663 2.80285 17.74 2.67485C17.868 2.42985 17.854 2.42985 17.206 2.64885C16.125 3.03485 15.972 2.98385 16.507 2.40485C16.901 1.99285 17.372 1.24685 17.372 1.02885C17.372 0.990848 17.181 1.05485 16.965 1.16985C16.736 1.29885 16.227 1.49185 15.845 1.60685L15.158 1.82585L14.535 1.39985C14.191 1.16885 13.709 0.910848 13.454 0.833848C12.804 0.653847 11.812 0.679847 11.226 0.885848Z" fill="white"/>
</svg>
