<svg width="16" height="20" viewBox="0 0 16 20" fill="none" xmlns="http://www.w3.org/2000/svg">
<path d="M7.99717 9.20732C7.99717 9.20632 14.3282 9.21632 15.0792 9.96732C15.8332 10.7193 15.8422 14.4293 15.8422 14.4503C15.8422 14.4503 15.8362 18.1804 15.0792 18.9344C14.3272 19.6834 7.99717 19.7004 7.99717 19.7004C7.99717 19.7004 1.66718 19.6844 0.914178 18.9344C0.160179 18.1824 0.15918 14.4783 0.15918 14.4503C0.15918 14.4293 0.161179 10.7193 0.914178 9.96732C1.66718 9.21732 7.99717 9.20732 7.99717 9.20732Z" fill="white"/>
<path d="M14.4911 15.3302V14.1441C14.4911 13.7031 14.3791 13.3651 14.1551 13.1301C13.9301 12.8951 13.6081 12.7771 13.1891 12.7771C12.7791 12.7771 12.4461 12.9041 12.1871 13.1581C11.9291 13.4121 11.7981 13.7421 11.7981 14.1441V16.2332C11.7981 16.6822 11.9181 17.0342 12.1521 17.2882C12.3871 17.5442 12.7111 17.6712 13.1201 17.6712C13.5751 17.6712 13.9181 17.5512 14.1461 17.3112C14.3771 17.0682 14.4901 16.7092 14.4901 16.2322V15.9932H13.5501V16.2052C13.5501 16.4802 13.5181 16.6562 13.4581 16.7362C13.3981 16.8162 13.2921 16.8562 13.1401 16.8562C12.9941 16.8562 12.8921 16.8102 12.8301 16.7152C12.7711 16.6202 12.7411 16.4502 12.7411 16.2052V15.3302H14.4911ZM12.7411 14.6041V14.1341C12.7411 13.9391 12.7721 13.7991 12.8351 13.7171C12.8991 13.6301 13.0041 13.5891 13.1491 13.5891C13.2881 13.5891 13.3911 13.6301 13.4521 13.7171C13.5161 13.7991 13.5491 13.9391 13.5491 14.1341V14.6041H12.7411Z" fill="#29354D"/>
<path d="M11.09 13.1309C10.938 12.9339 10.717 12.8349 10.427 12.8349C10.285 12.8349 10.145 12.8709 10.005 12.9459C9.86697 13.0189 9.73697 13.1279 9.61297 13.2689V11.2378H8.68896V17.5442H9.61297V17.1872C9.73197 17.3312 9.86397 17.4342 10.004 17.5022C10.143 17.5702 10.302 17.6032 10.482 17.6032C10.753 17.6032 10.962 17.5172 11.104 17.3402C11.248 17.1642 11.319 16.9122 11.319 16.5831V14.001C11.319 13.6199 11.244 13.3289 11.09 13.1309ZM10.378 16.4541C10.378 16.6041 10.35 16.7091 10.298 16.7742C10.246 16.8412 10.164 16.8732 10.052 16.8732C9.97397 16.8732 9.90197 16.8562 9.83097 16.8232C9.75997 16.7912 9.68697 16.7332 9.61297 16.6591V13.76C9.67497 13.696 9.73797 13.648 9.80197 13.6179C9.86497 13.5869 9.92997 13.5729 9.99597 13.5729C10.119 13.5729 10.215 13.6129 10.281 13.694C10.345 13.775 10.378 13.895 10.378 14.051V16.4541Z" fill="#29354D"/>
<path d="M7.08714 17.5431V17.0321C6.91714 17.2211 6.74214 17.3651 6.55814 17.4631C6.37515 17.5631 6.19815 17.6111 6.02715 17.6111C5.81515 17.6111 5.65816 17.5431 5.54916 17.4031C5.44416 17.2641 5.38916 17.0581 5.38916 16.7801V12.8904H6.30315V16.4581C6.30315 16.5691 6.32215 16.6481 6.35915 16.6981C6.39915 16.7481 6.46214 16.7721 6.54714 16.7721C6.61414 16.7721 6.70014 16.7401 6.80314 16.6731C6.90614 16.6071 7.00014 16.5251 7.08714 16.4242V12.8904H8.00012V17.5431H7.08714Z" fill="#29354D"/>
<path d="M3.92128 12.1538V17.5431H2.88926V12.1538H1.82324V11.2378H4.9873V12.1538H3.92128Z" fill="#29354D"/>
<path d="M13.1462 7.25626H12.1162V6.69022C11.9282 6.89823 11.7302 7.05825 11.5242 7.16625C11.3192 7.27526 11.1202 7.33027 10.9272 7.33027C10.6872 7.33027 10.5092 7.25326 10.3892 7.10125C10.2692 6.94824 10.2082 6.72022 10.2082 6.4142V2.13086H11.2362V6.06017C11.2362 6.18118 11.2602 6.26918 11.3032 6.32319C11.3452 6.37819 11.4162 6.40519 11.5122 6.40519C11.5872 6.40519 11.6832 6.36919 11.7992 6.29719C11.9142 6.22518 12.0212 6.13317 12.1162 6.02116V2.13086H13.1462V7.25626Z" fill="white"/>
<path d="M8.96528 2.3737C8.69227 2.12572 8.34226 2.00073 7.91624 2.00073C7.44922 2.00073 7.07521 2.11872 6.7992 2.3537C6.52119 2.58869 6.38218 2.90466 6.38318 3.30263V5.95841C6.38318 6.39438 6.51919 6.74035 6.7882 6.99833C7.05921 7.25531 7.42022 7.3843 7.87024 7.3843C8.33925 7.3843 8.70527 7.25931 8.97428 7.01033C9.24029 6.76035 9.37329 6.41738 9.37329 5.97941V3.33162C9.37229 2.94166 9.23629 2.62168 8.96528 2.3737ZM8.32325 6.05641C8.32325 6.19239 8.28225 6.30039 8.20025 6.38038C8.11725 6.45837 8.00724 6.49737 7.86824 6.49737C7.73123 6.49737 7.62623 6.45937 7.55423 6.38238C7.48122 6.30439 7.44322 6.19639 7.44322 6.05641V3.26463C7.44322 3.15264 7.48322 3.06165 7.56123 2.99265C7.64023 2.92366 7.74223 2.88966 7.86824 2.88966C8.00324 2.88966 8.11325 2.92366 8.19725 2.99265C8.28125 3.06165 8.32325 3.15264 8.32325 3.26463V6.05641Z" fill="white"/>
<path d="M3.57816 0.309814H2.41019L3.79016 4.50395V7.25604H4.95013V4.37394L6.2991 0.309814H5.12013L4.40414 3.0859H4.33115L3.57816 0.309814Z" fill="white"/>
</svg>
