<svg width="36" height="32" viewBox="0 0 36 32" fill="none" xmlns="http://www.w3.org/2000/svg">
<path d="M16.9409 9.01875L20.3327 9.9125C20.4479 9.93944 20.551 10.0037 20.6259 10.0952C20.7008 10.1868 20.7434 10.3005 20.7471 10.4187C20.7471 10.7063 20.4914 10.9438 20.1771 10.9438H17.9521C17.7123 10.9431 17.4749 10.8964 17.2528 10.8062C16.9253 10.6687 16.5478 10.7 16.2965 10.9312L15.109 12.025C15.0541 12.0731 15.0067 12.1291 14.9684 12.1912C14.9194 12.2717 14.8868 12.361 14.8724 12.4541C14.8581 12.5472 14.8623 12.6422 14.8848 12.7336C14.9074 12.8251 14.9478 12.9111 15.0038 12.9869C15.0597 13.0627 15.1301 13.1266 15.2109 13.175C15.8685 13.5697 16.6048 13.815 17.3678 13.8938V15C17.3678 15.55 17.8571 16 18.4534 16H19.539C20.1358 16 20.6252 15.55 20.6252 15V13.9C22.6833 13.675 24.2401 11.9625 23.9689 9.9625C23.772 8.525 22.5651 7.38125 21.0589 6.98125L17.6671 6.0875C17.5519 6.06056 17.4489 5.99633 17.3739 5.90478C17.299 5.81323 17.2564 5.6995 17.2528 5.58125C17.2528 5.29375 17.5084 5.05625 17.8227 5.05625H20.0477C20.2883 5.05662 20.5266 5.10331 20.7496 5.19375C21.0764 5.33125 21.4545 5.3 21.7058 5.06875L22.8933 3.975C22.9464 3.92795 22.9921 3.87317 23.0289 3.8125C23.0783 3.73211 23.1113 3.64272 23.126 3.54949C23.1407 3.45626 23.1368 3.36104 23.1145 3.26934C23.0922 3.17763 23.0519 3.09126 22.996 3.01521C22.9401 2.93916 22.8697 2.87493 22.7889 2.82625C22.131 2.43158 21.3945 2.18622 20.6314 2.1075V1C20.6314 0.45 20.1427 0 19.5458 0H18.4602C17.8634 0 17.3746 0.45 17.3746 1V2.1C15.319 2.325 13.7591 4.0375 14.0303 6.0375C14.2266 7.475 15.4372 8.61875 16.9409 9.01875ZM35.3286 20.5063C34.5911 19.8375 33.4412 19.8813 32.6662 20.5063L26.8913 25.125C26.1824 25.6937 25.3002 26.0025 24.3913 26H16.9996C16.7344 26 16.4801 25.8946 16.2925 25.7071C16.105 25.5196 15.9997 25.2652 15.9997 25C15.9997 24.7348 16.105 24.4804 16.2925 24.2929C16.4801 24.1054 16.7344 24 16.9996 24H21.8927C22.8864 24 23.812 23.3188 23.9707 22.3375C23.9903 22.2248 23.9999 22.1106 23.9995 21.9963C23.9985 21.4665 23.7873 20.9587 23.4124 20.5845C23.0374 20.2102 22.5293 20 21.9995 20H11.9997C10.3133 20.0004 8.67822 20.5806 7.36859 21.6431L4.4624 24H0.999978C0.734768 24 0.480419 24.1054 0.292887 24.2929C0.105355 24.4804 0 24.7348 0 25L0 31C0 31.2652 0.105355 31.5196 0.292887 31.7071C0.480419 31.8946 0.734768 32 0.999978 32H23.2976C24.2061 32.0007 25.0878 31.6921 25.7976 31.125L35.2492 23.5625C35.4766 23.3806 35.6615 23.1513 35.7911 22.8906C35.9206 22.6299 35.9917 22.344 35.9993 22.053C36.0069 21.7619 35.9509 21.4727 35.8352 21.2056C35.7194 20.9384 35.5468 20.6997 35.3292 20.5063H35.3286Z" fill="#207D87"/>
</svg>
