<svg width="36" height="32" viewBox="0 0 36 32" fill="none" xmlns="http://www.w3.org/2000/svg">
<path opacity="0.9" d="M35.6681 14.7669L32 11.5275V3C32 2.73478 31.8946 2.48043 31.7071 2.29289C31.5196 2.10536 31.2652 2 31 2H27C26.7348 2 26.4804 2.10536 26.2929 2.29289C26.1054 2.48043 26 2.73478 26 3V6.22937L19.6737 0.64375C19.2812 0.288125 18.5331 0 18 0C17.4669 0 16.7213 0.288125 16.3288 0.64375L0.32875 14.7688C0.131614 14.9679 0.0146051 15.2326 0 15.5125C0.0127731 15.7569 0.102213 15.9911 0.255625 16.1819L1.59375 17.6688C1.8023 17.8559 2.06495 17.9719 2.34375 18C2.58546 17.9758 2.81623 17.8871 3.01187 17.7431L4.00562 16.8681V30C4.00562 30.5304 4.21634 31.0391 4.59141 31.4142C4.96648 31.7893 5.47519 32 6.00562 32H30C30.5304 32 31.0391 31.7893 31.4142 31.4142C31.7893 31.0391 32 30.5304 32 30V16.8675L32.9944 17.7425C33.1909 17.8863 33.4221 17.9752 33.6644 18C33.9407 17.9711 34.2006 17.8549 34.4062 17.6681L35.7444 16.18C35.888 15.9843 35.9763 15.7535 36 15.5119C35.9713 15.2346 35.8551 14.9737 35.6681 14.7669ZM18 11C18.7911 11 19.5645 11.2346 20.2223 11.6741C20.8801 12.1136 21.3928 12.7384 21.6955 13.4693C21.9983 14.2002 22.0775 15.0044 21.9231 15.7804C21.7688 16.5563 21.3878 17.269 20.8284 17.8284C20.269 18.3878 19.5563 18.7688 18.7804 18.9231C18.0044 19.0775 17.2002 18.9983 16.4693 18.6955C15.7384 18.3928 15.1136 17.8801 14.6741 17.2223C14.2346 16.5645 14 15.7911 14 15C14 13.9391 14.4214 12.9217 15.1716 12.1716C15.9217 11.4214 16.9391 11 18 11ZM25 28H11C10.7348 28 10.4804 27.8946 10.2929 27.7071C10.1054 27.5196 10 27.2652 10 27C10 25.4087 10.6321 23.8826 11.7574 22.7574C12.8826 21.6321 14.4087 21 16 21H20C21.5913 21 23.1174 21.6321 24.2426 22.7574C25.3679 23.8826 26 25.4087 26 27C26 27.2652 25.8946 27.5196 25.7071 27.7071C25.5196 27.8946 25.2652 28 25 28Z" fill="#207D87"/>
</svg>
