<svg width="19" height="32" viewBox="0 0 19 32" fill="none" xmlns="http://www.w3.org/2000/svg">
<path d="M12.0328 19.825L5.5884 18.0375C2.73134 17.2375 0.431196 14.95 0.058328 12.075C-0.457037 8.075 2.5069 4.65 6.41251 4.2V2C6.41251 0.9 7.34112 0 8.47516 0H10.5378C11.6718 0 12.6004 0.9 12.6004 2V4.215C14.0503 4.37244 15.4497 4.86317 16.6996 5.6525C16.8532 5.74987 16.987 5.87831 17.0932 6.03042C17.1994 6.18252 17.2759 6.35527 17.3183 6.53868C17.3607 6.72208 17.3681 6.91252 17.3402 7.09897C17.3123 7.28543 17.2496 7.46422 17.1556 7.625C17.0857 7.74633 16.9988 7.85589 16.8979 7.95L14.6417 10.1375C14.1644 10.6 13.4459 10.6625 12.8249 10.3875C12.4013 10.2066 11.9485 10.1132 11.4913 10.1125H7.26393C6.66663 10.1125 6.18095 10.5875 6.18095 11.1625C6.18787 11.399 6.2688 11.6265 6.41118 11.8096C6.55355 11.9927 6.74938 12.1211 6.96825 12.175L13.4127 13.9625C16.2745 14.7625 18.5675 17.05 18.9416 19.925C19.4569 23.925 16.4989 27.35 12.5886 27.8V30C12.5886 31.1 11.6588 32 10.5247 32H8.4621C7.32925 32 6.39945 31.1 6.39945 30V27.7875C4.94992 27.6301 3.55095 27.1393 2.30147 26.35C2.14798 26.2532 2.01421 26.1253 1.90788 25.9738C1.80155 25.8223 1.72476 25.6501 1.68193 25.4672C1.6391 25.2843 1.63108 25.0943 1.65834 24.9082C1.68559 24.722 1.74758 24.5433 1.84073 24.3825C1.9135 24.2582 2.00356 24.1461 2.10791 24.05L4.36412 21.8625C4.84148 21.4 5.55872 21.3375 6.18095 21.6125C6.6031 21.7928 7.05418 21.8861 7.50974 21.8875H11.7372C12.3345 21.8875 12.8201 21.4125 12.8201 20.8375C12.8132 20.601 12.7323 20.3735 12.5899 20.1904C12.4475 20.0073 12.2517 19.8789 12.0328 19.825Z" fill="#207D87"/>
</svg>
