<svg width="26" height="19" viewBox="0 0 26 19" fill="none" xmlns="http://www.w3.org/2000/svg">
<path d="M9.13782 19C8.915 18.9993 8.69472 18.9542 8.49065 18.8674C8.28658 18.7806 8.10308 18.654 7.95157 18.4954L0.36282 10.6117C0.103521 10.3015 -0.0247387 9.90725 0.00395404 9.50875C0.0326468 9.11026 0.216153 8.73719 0.517397 8.46491C0.818641 8.19263 1.21517 8.04145 1.62686 8.0419C2.03855 8.04236 2.43472 8.19442 2.73532 8.46736L9.13782 15.1054L23.1128 0.583653C23.2531 0.41575 23.4275 0.277636 23.6252 0.17789C23.8228 0.078145 24.0395 0.0189 24.2617 0.00383424C24.484 -0.0112315 24.707 0.018204 24.9171 0.0903134C25.1271 0.162423 25.3196 0.275665 25.4826 0.423005C25.6456 0.570346 25.7757 0.748636 25.8647 0.946802C25.9537 1.14497 25.9997 1.35878 26 1.57494C26.0003 1.79111 25.9547 2.00502 25.8662 2.20338C25.7776 2.40174 25.648 2.58032 25.4853 2.72802L10.3241 18.4954C10.1726 18.654 9.98906 18.7806 9.78499 18.8674C9.58092 18.9542 9.36063 18.9993 9.13782 19Z" fill="#99D2A8"/>
</svg>
