<svg width="293" height="80" viewBox="0 0 293 80" fill="none" xmlns="http://www.w3.org/2000/svg">
<path d="M194.636 57.1116H188.164V79.7488H194.636V57.1116Z" fill="#187A88"/>
<path d="M197.324 57.9542C196.669 58.4829 196.12 59.1112 195.608 59.8441L195.597 59.8598L194.958 68.3514C195.259 67.1002 195.766 66.1055 196.484 65.3464C197.72 64.0533 199.419 63.4041 201.579 63.4041H201.917V56.6873C199.99 56.5983 198.453 57.0275 197.324 57.9542Z" fill="#187A88"/>
<path d="M159.693 62.3413C160.342 60.8126 161.219 59.441 162.311 58.2683C162.786 57.7448 163.304 57.2736 163.863 56.8495H151.906V51.0593H145.433V56.8495H142.709H134.231V51.0593H127.758V56.8495H119.248C119.919 57.3888 120.526 57.996 121.07 58.6609C121.957 59.7603 122.669 60.9958 123.187 62.3413H127.764V73.0736C127.764 74.3981 127.927 75.487 128.255 76.3456C128.577 77.2094 129.031 77.911 129.622 78.4397C130.203 78.979 130.9 79.3559 131.707 79.5601C132.515 79.7695 133.413 79.8742 134.405 79.8742C135.487 79.8742 136.443 79.7538 137.266 79.5234C138.085 79.2826 138.834 78.9632 139.521 78.5706V73.4139C138.528 73.9531 137.462 74.2149 136.327 74.2149C134.928 74.2149 134.231 73.4872 134.231 72.0161V62.3413H142.709H145.433V73.0736C145.433 74.3981 145.597 75.487 145.924 76.3456C146.246 77.2094 146.701 77.911 147.292 78.4397C147.873 78.979 148.569 79.3559 149.377 79.5601C150.185 79.7695 151.082 79.8742 152.075 79.8742C153.157 79.8742 154.113 79.7538 154.936 79.5234C155.754 79.2826 156.504 78.9632 157.19 78.5706V73.4139C156.198 73.9531 155.132 74.2149 153.996 74.2149C152.597 74.2149 151.901 73.4872 151.901 72.0161V62.3413H159.693Z" fill="#187A88"/>
<path d="M6.34569 51.0593H3.06198V57.6505H0V60.5299H3.06198V73.707C3.06198 74.8064 3.22564 75.7488 3.53184 76.5393C3.84859 77.3246 4.2815 77.9685 4.83582 78.4659C5.39542 78.9528 6.05005 79.314 6.81555 79.5391C7.58105 79.7642 8.40989 79.8742 9.29153 79.8742C10.0834 79.8742 10.8014 79.8009 11.4402 79.6438C12.079 79.492 12.6861 79.2564 13.251 78.9475V76.1676C12.6861 76.4503 12.1529 76.6388 11.6514 76.754C11.1604 76.8744 10.6272 76.932 10.057 76.932C8.94838 76.932 8.0509 76.6597 7.37515 76.1205C6.68885 75.5917 6.35097 74.6442 6.35097 73.2882V60.5351H13.3407V57.6557H6.34569V51.0593Z" fill="#187A88"/>
<path d="M22.4105 48.6565H19.1268V79.4974H22.4105V48.6565Z" fill="#187A88"/>
<path d="M36.1525 59.6243C35.424 58.8443 34.5423 58.2475 33.5076 57.8286C32.4729 57.4046 31.285 57.1899 29.9494 57.1899C28.0435 57.1899 26.4967 57.6088 25.3036 58.4412C25.1822 58.5302 25.0608 58.6192 24.9393 58.7082V61.4672C25.3775 61.1216 25.8632 60.8494 26.3964 60.64C27.2041 60.3206 28.0752 60.1531 29.0149 60.1531C30.9735 60.1531 32.4729 60.7447 33.5234 61.9331C34.574 63.111 35.1019 64.7235 35.1019 66.7443V79.5079H38.3857V65.9433C38.3857 64.6502 38.2009 63.467 37.8102 62.399C37.4248 61.3153 36.8705 60.3939 36.1525 59.6243Z" fill="#187A88"/>
<path d="M59.0699 76.3303C57.9718 76.8905 56.6625 77.1732 55.1263 77.1732C54.1654 77.1732 53.2416 77.0109 52.3599 76.6915C51.4783 76.3617 50.6811 75.8801 49.9737 75.2466C49.261 74.6131 48.6803 73.8436 48.2263 72.9274C48.0784 72.6395 47.9517 72.3358 47.8356 72.0112H44.4568C44.5783 72.4301 44.7155 72.8384 44.8845 73.2363C45.4757 74.6446 46.2729 75.8487 47.2707 76.8538C48.2738 77.8485 49.4458 78.6234 50.7814 79.1783C52.1171 79.7228 53.5319 79.995 55.0418 79.995C57.143 79.995 58.8957 79.6285 60.3211 78.8799C61.7412 78.1365 63.003 77.1418 64.1116 75.8958L62.0685 74.0739C61.1605 75.0163 60.1574 75.7701 59.0699 76.3303Z" fill="#187A88"/>
<path d="M62.153 60.5669C61.2714 59.5251 60.1891 58.6979 58.9115 58.0959C57.6339 57.4886 56.1874 57.1797 54.572 57.1797C53.0357 57.1797 51.6208 57.4781 50.3274 58.0697C49.034 58.6613 47.9253 59.4727 46.9909 60.4988C46.0512 61.5249 45.3174 62.7448 44.7947 64.1321C44.2668 65.5247 44.0081 67.0167 44.0081 68.5873C44.0081 68.9904 44.024 69.3883 44.0662 69.7757H64.8032C64.8296 69.5768 64.8454 69.3883 64.8454 69.2208V68.7548C64.8454 67.1529 64.6184 65.6451 64.1591 64.242C63.6998 62.839 63.0346 61.6087 62.153 60.5669ZM47.371 67.3727C47.4819 66.2995 47.7406 65.31 48.1312 64.4148C48.5272 63.5091 49.0393 62.7291 49.6569 62.0642C50.2799 61.4045 50.9979 60.8862 51.8162 60.4988C52.6345 60.1219 53.5214 59.9282 54.4822 59.9282C55.5803 59.9282 56.5517 60.1376 57.3858 60.5355C58.2199 60.9438 58.9221 61.4883 59.5028 62.1637C60.0782 62.8442 60.527 63.6295 60.8543 64.53C61.1869 65.4357 61.3875 66.3833 61.4667 67.3675H47.371V67.3727Z" fill="#187A88"/>
<path d="M90.2545 64.0324C90.7877 63.7497 91.2892 63.4146 91.7591 63.022C92.2184 62.6293 92.6302 62.1739 92.9786 61.6451C93.3323 61.1216 93.6174 60.5457 93.8286 59.8965C94.0397 59.2473 94.1453 58.5039 94.1453 57.6506V57.5721C94.1453 55.2319 93.2795 53.3734 91.5321 51.9913C89.7846 50.6144 87.3878 49.9233 84.3206 49.9233H70.5047V67.2887H84.4737C86.1789 67.2887 87.4142 67.5766 88.185 68.1525C88.9505 68.7284 89.3306 69.5137 89.3306 70.4927V70.5817C89.3306 71.6811 88.9188 72.4873 88.0953 73.0109C87.2717 73.5344 86.1367 73.7961 84.6901 73.7961H78.6929V73.8066H70.5047V79.4973H84.669C86.3425 79.4973 87.863 79.3298 89.2356 78.9948C90.6082 78.6597 91.7908 78.1466 92.7674 77.4713C93.7441 76.7959 94.499 75.9478 95.0217 74.9374C95.5496 73.9218 95.8083 72.7386 95.8083 71.3879V71.3094C95.8083 69.3357 95.3173 67.7913 94.3195 66.6814C93.3323 65.5611 91.9755 64.6815 90.2545 64.0324ZM87.6676 58.75C87.6676 59.8494 87.2453 60.6504 86.3901 61.1373C85.5401 61.6346 84.3945 61.8754 82.9374 61.8754H76.8926V55.6298H83.365C84.7535 55.6298 85.8199 55.8863 86.559 56.4098C87.3034 56.9334 87.6676 57.682 87.6676 58.6715V58.75Z" fill="#187A88"/>
<path d="M120.542 62.3414C120.172 61.5561 119.708 60.8337 119.174 60.1688C118.536 59.3887 117.802 58.7186 116.941 58.1584C116.551 57.8914 116.134 57.6611 115.695 57.4464C114.307 56.7711 112.655 56.436 110.754 56.436C109.075 56.436 107.555 56.7397 106.172 57.3679C104.799 57.9857 103.611 58.8285 102.613 59.9018C101.621 60.9698 100.845 62.2262 100.296 63.6607C99.7361 65.0952 99.4616 66.6186 99.4616 68.2206V68.2991C99.4616 70.0477 99.7625 71.634 100.359 73.0527C100.956 74.482 101.779 75.7123 102.851 76.7488C103.917 77.7907 105.179 78.6021 106.641 79.1623C108.104 79.7225 109.688 80.0052 111.393 80.0052C113.462 80.0052 115.262 79.6387 116.799 78.8901C118.335 78.1467 119.634 77.1048 120.721 75.7803L117.01 72.524C116.107 73.3407 115.226 73.9323 114.376 74.304C113.52 74.6704 112.554 74.8484 111.472 74.8484C110.025 74.8484 108.811 74.482 107.835 73.7333C106.847 72.9899 106.209 71.8801 105.897 70.4142H121.788C121.814 70.1001 121.835 69.8383 121.851 69.6132C121.862 69.3881 121.867 69.1158 121.867 68.8122V68.7232C121.867 67.1212 121.65 65.582 121.202 64.1005C121.038 63.4775 120.811 62.8911 120.542 62.3414ZM105.818 66.3987C106.077 64.9381 106.626 63.7706 107.46 62.8963C108.299 62.0221 109.397 61.5875 110.765 61.5875C112.121 61.5875 113.219 62.0273 114.038 62.9173C114.861 63.7968 115.379 64.959 115.574 66.3987H105.818Z" fill="#187A88"/>
<path d="M180.646 60.1689C179.723 59.0328 178.566 58.1167 177.173 57.4413C175.784 56.766 174.132 56.4309 172.231 56.4309C170.558 56.4309 169.032 56.7346 167.654 57.3628C166.815 57.7397 166.055 58.1952 165.358 58.7344C164.904 59.0852 164.487 59.4726 164.096 59.8967C163.415 60.6244 162.845 61.4358 162.375 62.3415C162.148 62.7603 161.947 63.2001 161.768 63.6556C161.219 65.09 160.944 66.6135 160.944 68.2155V68.294C160.944 70.0426 161.235 71.6289 161.831 73.0476C162.428 74.4769 163.262 75.7071 164.328 76.7437C165.389 77.7855 166.656 78.597 168.119 79.1572C169.576 79.7173 171.16 80 172.865 80C174.945 80 176.745 79.6336 178.271 78.8849C179.807 78.1415 181.116 77.0997 182.193 75.7752L178.492 72.5189C177.579 73.3356 176.698 73.9271 175.848 74.2989C174.998 74.6653 174.026 74.8433 172.955 74.8433C171.508 74.8433 170.288 74.4769 169.307 73.7282C168.33 72.9848 167.681 71.8749 167.369 70.4091H183.26C183.286 70.0949 183.307 69.8332 183.323 69.6081C183.339 69.3829 183.349 69.1107 183.349 68.8071V68.7181C183.349 67.1161 183.122 65.5769 182.684 64.0953C182.246 62.619 181.565 61.3049 180.646 60.1689ZM167.29 66.3988C167.538 64.9382 168.092 63.7707 168.932 62.8965C169.766 62.0222 170.864 61.5876 172.231 61.5876C173.599 61.5876 174.686 62.0274 175.515 62.9174C176.339 63.7969 176.851 64.9591 177.051 66.3988H167.29Z" fill="#187A88"/>
<path d="M221.218 74.1313C219.882 74.1313 218.673 73.901 217.58 73.435C216.487 72.9639 215.537 72.3147 214.724 71.4613C213.916 70.6132 213.283 69.6185 212.85 68.4772C212.407 67.3307 212.185 66.0795 212.185 64.7236V64.645C212.185 63.3729 212.401 62.174 212.85 61.0641C213.288 59.949 213.901 58.9805 214.677 58.1481C215.463 57.3157 216.366 56.6508 217.411 56.1587C218.446 55.6613 219.56 55.4153 220.748 55.4153C221.603 55.4153 222.379 55.4886 223.092 55.6299C223.804 55.766 224.464 55.965 225.071 56.2163C225.684 56.4728 226.275 56.7869 226.84 57.1481C227.405 57.5146 227.97 57.9439 228.545 58.4151L232.674 53.4782C231.908 52.8291 231.111 52.2532 230.287 51.7454C229.464 51.2323 228.582 50.8135 227.643 50.4784C226.703 50.1329 225.694 49.8764 224.596 49.6931C223.504 49.5099 222.295 49.4209 220.959 49.4209C218.689 49.4209 216.593 49.824 214.692 50.625C212.792 51.426 211.145 52.5254 209.751 53.918C208.363 55.3106 207.27 56.9335 206.494 58.7763C205.707 60.6191 205.322 62.5981 205.322 64.7183V64.7969C205.322 66.9957 205.702 69.0217 206.467 70.8802C207.233 72.7387 208.305 74.3407 209.682 75.6967C211.055 77.0421 212.707 78.0997 214.624 78.864C216.54 79.6231 218.668 80.0001 220.996 80.0001C223.72 80.0001 226.143 79.5446 228.265 78.6284C230.367 77.7122 232.188 76.6181 233.724 75.3197L227.394 72.3461C225.721 73.5293 223.667 74.1313 221.218 74.1313Z" fill="#187A88"/>
<path d="M233.745 62.467H220.795V68.0845H233.745V62.467Z" fill="#187A88"/>
<path d="M248.522 57.6978C247.867 58.2371 247.292 58.8705 246.801 59.614L246.162 68.1055C246.463 66.8543 246.97 65.8544 247.698 65.09C248.929 63.7917 250.623 63.1478 252.782 63.1478H253.131V56.4309C251.199 56.3419 249.662 56.7712 248.522 57.6978Z" fill="#187A88"/>
<path d="M245.84 56.8496H239.368V79.4973H245.84V56.8496Z" fill="#187A88"/>
<path d="M264.117 48.6565H257.301V54.3577H264.117V48.6565Z" fill="#187A88"/>
<path d="M263.948 56.8496H257.476V79.4973H263.948V56.8496Z" fill="#187A88"/>
<path d="M286.527 48.6565V59.7814C285.762 58.8862 284.812 58.1061 283.698 57.4308C282.573 56.7554 281.143 56.4309 279.411 56.4309C278.044 56.4309 276.745 56.6769 275.489 57.1847C274.243 57.6978 273.145 58.4517 272.189 59.4464C271.233 60.4463 270.468 61.6766 269.887 63.1268C269.306 64.5769 269.016 66.247 269.016 68.1264V68.2154C269.016 70.1001 269.306 71.7754 269.887 73.2151C270.468 74.6653 271.244 75.8903 272.205 76.8955C273.176 77.8954 274.285 78.6493 275.525 79.1571C276.777 79.6597 278.07 79.9162 279.406 79.9162C281.111 79.9162 282.526 79.5707 283.64 78.8901C284.764 78.1991 285.725 77.3248 286.517 76.2672V79.4922H293V48.6565H286.527ZM286.617 68.2154C286.617 69.1525 286.464 70.0111 286.163 70.7912C285.862 71.5712 285.466 72.2361 284.975 72.7858C284.474 73.3407 283.893 73.7648 283.228 74.058C282.557 74.3616 281.839 74.5082 281.079 74.5082C280.314 74.5082 279.591 74.3616 278.92 74.058C278.255 73.7596 277.669 73.3355 277.157 72.7858C276.65 72.2309 276.233 71.566 275.943 70.7912C275.642 70.0111 275.489 69.1578 275.489 68.2154V68.1264C275.489 67.1631 275.642 66.2993 275.943 65.535C276.233 64.7654 276.645 64.1057 277.157 63.556C277.664 63.0011 278.255 62.577 278.92 62.2839C279.591 61.9855 280.308 61.8336 281.079 61.8336C281.839 61.8336 282.557 61.9855 283.228 62.2839C283.893 62.5823 284.474 63.0063 284.975 63.556C285.466 64.111 285.862 64.7759 286.163 65.5507C286.464 66.336 286.617 67.1945 286.617 68.1264V68.2154Z" fill="#187A88"/>
<path d="M142.335 40.4685C134.263 38.4529 128.271 31.1916 128.271 22.5692C128.271 18.4385 129.617 14.5383 132.103 11.3395C132.779 10.4705 134.088 10.4129 134.865 11.1982L137.113 13.465L139.304 5.62786L140.55 1.14647L140.661 0.743359L140.772 0.345479C140.83 0.141304 140.645 -0.0471653 140.439 0.00518731L127.151 3.41858L129.342 5.62786C130.008 6.29797 130.055 7.35549 129.448 8.07272C126.043 12.1091 124.126 17.2606 124.126 22.5639C124.126 33.3014 131.729 42.3113 141.881 44.573C142.192 44.641 142.493 44.4159 142.514 44.0965L142.725 40.992C142.752 40.7512 142.583 40.5313 142.335 40.4685Z" fill="#A6D2A9"/>
<path d="M162.454 5.9631C159.381 3.16223 155.638 1.27754 151.616 0.455603C151.22 0.38231 150.829 0.314251 150.433 0.256664C150.069 0.199076 149.71 0.157194 149.34 0.120547C149.192 0.104841 149.045 0.0943705 148.897 0.0786647C148.833 0.0681942 148.765 0.0681942 148.696 0.0629589C148.343 0.0367826 147.984 0.0210769 147.619 0.0106064H147.366C147.281 0.00537109 147.197 0.00537109 147.118 0.00537109C146.88 0.00537109 146.495 0.0106064 146.257 0.0210769C146.051 0.0315474 145.851 0.0367827 145.645 0.0472532H145.624C144.578 0.110076 143.734 0.916306 143.633 1.95289L143.385 4.47628L143.38 4.56005L141.432 24.653C141.353 25.4854 142.097 26.1607 142.926 26.0089L145.333 25.5691C146.146 25.4226 146.885 26.0717 146.827 26.8884C146.827 26.8884 145.888 40.9922 145.888 40.9975L145.819 42.0183C145.819 42.0183 145.703 43.8245 145.645 44.6621C145.629 44.8925 145.808 45.0967 146.041 45.1124C147.461 45.1961 148.907 45.1019 150.312 44.8977C151.705 44.6988 153.078 44.369 154.408 43.9187C155.712 43.4737 156.979 42.9136 158.178 42.2434C159.371 41.5786 160.501 40.809 161.551 39.9399C162.602 39.0761 163.573 38.1233 164.45 37.0919C165.331 36.0554 166.118 34.9403 166.799 33.7676C167.485 32.5792 168.061 31.3332 168.52 30.0453C168.984 28.7312 169.328 27.3753 169.539 25.9984C169.713 24.8676 169.797 23.7211 169.797 22.5746C169.803 16.2766 167.126 10.2246 162.454 5.9631ZM148.116 37.5736L154.72 17.7058C155.021 16.8001 154.234 15.8996 153.284 16.0724L150.528 16.575C149.662 16.732 148.897 15.9834 149.05 15.1248L150.064 9.31366L150.486 6.8845C150.718 5.56522 152.096 4.75899 153.368 5.20922C155.67 6.03115 157.808 7.30856 159.651 8.98384C160.59 9.84242 161.43 10.7848 162.164 11.8004C164.418 14.9154 165.669 18.69 165.669 22.5798C165.669 32.5582 157.56 40.7095 147.566 41.0236C147.276 41.0341 147.065 40.7462 147.155 40.4687L148.116 37.5736Z" fill="#2F354D"/>
</svg>
