<svg width="12" height="39" viewBox="0 0 12 39" fill="none" xmlns="http://www.w3.org/2000/svg">
<path d="M8.09364 0.220393C8.45325 0.266523 8.80212 0.322896 9.15636 0.389528C8.95042 1.53308 8.35663 4.80259 8.1473 5.94558L7.76622 8.04704L6.85378 13.07C6.71423 13.8132 7.40124 14.4642 8.1795 14.3258L10.6539 13.8952C11.5073 13.7466 12.2104 14.5206 11.942 15.3048L6.01646 32.4804C6.01646 32.4804 5.23283 34.7407 5.15232 34.9816L4.14863 39C4.14863 39 3.77291 38.8104 3.78901 38.6105C3.83732 37.8826 3.94467 36.3245 3.94467 36.3245L4.0037 35.4429C4.0037 35.4378 4.84638 23.2442 4.84638 23.2442C4.89469 22.5369 4.2345 21.9731 3.50454 22.1012L1.34688 22.4805C0.600814 22.6137 -0.0647375 22.0243 0.00503803 21.3067L1.7548 3.93639L1.76016 3.86462L1.98022 1.68628C2.07146 0.794443 2.82827 0.0922523 3.76756 0.0409972H3.78366C3.97151 0.0307462 4.154 0.0205014 4.33649 0.0153759C4.54582 0.00512488 4.8947 0 5.10939 0H5.10986C5.18485 0 5.25983 0 5.33481 0.00511487H5.56561C5.89301 0.0153659 6.21506 0.0307405 6.53174 0.0512426L6.70885 0.0666185C6.8484 0.081995 6.97722 0.0871243 7.1114 0.102501C7.44418 0.133254 7.76623 0.174264 8.09364 0.220393Z" fill="white"/>
</svg>
