<svg width="133" height="38" viewBox="0 0 133 38" fill="none" xmlns="http://www.w3.org/2000/svg">
<path d="M88.35 26.4155H85.4121V36.8852H88.35V26.4155Z" fill="#187A88"/>
<path d="M89.5697 26.8056C89.2725 27.0502 89.0233 27.3407 88.7909 27.6797L88.7861 27.687L88.4961 31.6143C88.6327 31.0356 88.8628 30.5756 89.1887 30.2245C89.7494 29.6264 90.5211 29.3262 91.5012 29.3262H91.6546V26.2197C90.7799 26.1785 90.0825 26.377 89.5697 26.8056Z" fill="#187A88"/>
<path d="M72.4887 28.8346C72.7835 28.1276 73.1813 27.4932 73.6773 26.9508C73.893 26.7087 74.1278 26.4908 74.3819 26.2947H68.954V23.6167H66.016V26.2947H64.7795H60.9309V23.6167H57.9929V26.2947H54.1299C54.4343 26.544 54.7098 26.8249 54.9567 27.1324C55.3593 27.6409 55.6828 28.2123 55.9176 28.8346H57.9953V33.7983C57.9953 34.4109 58.0696 34.9145 58.2182 35.3116C58.3644 35.7111 58.5704 36.0356 58.8388 36.2801C59.1024 36.5295 59.4188 36.7039 59.7854 36.7983C60.1521 36.8951 60.5594 36.9436 61.01 36.9436C61.5012 36.9436 61.935 36.8879 62.3088 36.7813C62.6803 36.67 63.0205 36.5223 63.3321 36.3407V33.9557C62.8816 34.2051 62.3975 34.3261 61.8823 34.3261C61.2472 34.3261 60.9309 33.9896 60.9309 33.3092V28.8346H64.7795H66.016V33.7983C66.016 34.4109 66.0903 34.9145 66.2389 35.3116C66.3851 35.7111 66.5912 36.0356 66.8596 36.2801C67.1232 36.5295 67.4395 36.7039 67.8062 36.7983C68.1728 36.8951 68.5802 36.9436 69.0307 36.9436C69.522 36.9436 69.9557 36.8879 70.3296 36.7813C70.701 36.67 71.0413 36.5223 71.3528 36.3407V33.9557C70.9023 34.2051 70.4182 34.3261 69.903 34.3261C69.268 34.3261 68.9516 33.9896 68.9516 33.3092V28.8346H72.4887Z" fill="#187A88"/>
<path d="M2.88047 23.6167H1.38991V26.6651H0V27.9968H1.38991V34.0913C1.38991 34.5997 1.4642 35.0356 1.60319 35.4012C1.74697 35.7644 1.94348 36.0622 2.1951 36.2922C2.44912 36.5174 2.74627 36.6845 3.09375 36.7886C3.44123 36.8927 3.81746 36.9436 4.21766 36.9436C4.57712 36.9436 4.90303 36.9097 5.19299 36.837C5.48296 36.7668 5.75854 36.6579 6.01496 36.515V35.2293C5.75854 35.36 5.5165 35.4472 5.28885 35.5005C5.06598 35.5562 4.82395 35.5828 4.56514 35.5828C4.06189 35.5828 3.6545 35.4569 3.34777 35.2075C3.03623 34.9629 2.88286 34.5247 2.88286 33.8976V27.9993H6.05569V26.6675H2.88047V23.6167Z" fill="#187A88"/>
<path d="M10.1732 22.5054H8.68262V36.7693H10.1732V22.5054Z" fill="#187A88"/>
<path d="M16.4102 27.578C16.0795 27.2173 15.6793 26.9412 15.2096 26.7475C14.7399 26.5514 14.2007 26.4521 13.5944 26.4521C12.7293 26.4521 12.0272 26.6458 11.4856 27.0308C11.4305 27.072 11.3754 27.1132 11.3203 27.1543V28.4303C11.5192 28.2705 11.7396 28.1446 11.9817 28.0478C12.3483 27.9001 12.7437 27.8226 13.1703 27.8226C14.0593 27.8226 14.7399 28.0962 15.2168 28.6458C15.6937 29.1906 15.9333 29.9365 15.9333 30.871V36.7742H17.4239V30.5006C17.4239 29.9025 17.34 29.3553 17.1627 28.8613C16.9877 28.3601 16.7361 27.934 16.4102 27.578Z" fill="#187A88"/>
<path d="M26.8129 35.3042C26.3144 35.5632 25.7201 35.694 25.0228 35.694C24.5866 35.694 24.1673 35.6189 23.7671 35.4712C23.3669 35.3187 23.005 35.0959 22.6839 34.8029C22.3604 34.51 22.0968 34.154 21.8907 33.7303C21.8236 33.5971 21.7661 33.4567 21.7133 33.3066H20.1797C20.2348 33.5003 20.2971 33.6891 20.3738 33.8732C20.6422 34.5245 21.004 35.0814 21.4569 35.5463C21.9122 36.0063 22.4442 36.3647 23.0505 36.6213C23.6568 36.8732 24.2991 36.9991 24.9844 36.9991C25.9382 36.9991 26.7338 36.8296 27.3808 36.4833C28.0255 36.1395 28.5982 35.6795 29.1014 35.1032L28.174 34.2606C27.7619 34.6964 27.3065 35.0451 26.8129 35.3042Z" fill="#187A88"/>
<path d="M28.213 28.0138C27.8128 27.532 27.3215 27.1494 26.7416 26.871C26.1617 26.5901 25.5051 26.4473 24.7718 26.4473C24.0744 26.4473 23.4322 26.5853 22.8451 26.8589C22.2579 27.1325 21.7547 27.5078 21.3305 27.9824C20.904 28.4569 20.5709 29.0211 20.3336 29.6628C20.094 30.3068 19.9766 30.9969 19.9766 31.7233C19.9766 31.9097 19.9838 32.0937 20.0029 32.2729H29.416C29.428 32.1809 29.4352 32.0937 29.4352 32.0163V31.8008C29.4352 31.0598 29.3321 30.3625 29.1236 29.7136C28.9151 29.0647 28.6132 28.4957 28.213 28.0138ZM21.5031 31.1615C21.5534 30.6652 21.6708 30.2075 21.8482 29.7935C22.0279 29.3746 22.2603 29.0138 22.5407 28.7063C22.8235 28.4013 23.1494 28.1615 23.5208 27.9824C23.8923 27.808 24.2949 27.7184 24.731 27.7184C25.2295 27.7184 25.6704 27.8153 26.049 27.9993C26.4277 28.1882 26.7464 28.44 27.01 28.7523C27.2712 29.0671 27.4749 29.4303 27.6235 29.8468C27.7745 30.2657 27.8655 30.7039 27.9015 31.1591H21.5031V31.1615Z" fill="#187A88"/>
<path d="M40.9689 29.6167C41.2109 29.486 41.4386 29.331 41.6518 29.1494C41.8603 28.9678 42.0472 28.7572 42.2054 28.5126C42.366 28.2705 42.4954 28.0041 42.5912 27.7039C42.6871 27.4037 42.735 27.0598 42.735 26.6652V26.6288C42.735 25.5465 42.342 24.6869 41.5488 24.0477C40.7556 23.4109 39.6676 23.0913 38.2753 23.0913H32.0039V31.1228H38.3448C39.1188 31.1228 39.6796 31.256 40.0295 31.5223C40.377 31.7886 40.5495 32.1518 40.5495 32.6046V32.6458C40.5495 33.1543 40.3626 33.5271 39.9887 33.7693C39.6149 34.0114 39.0997 34.1325 38.4431 34.1325H35.7208V34.1373H32.0039V36.7693H38.4335C39.1931 36.7693 39.8833 36.6918 40.5064 36.5368C41.1294 36.3819 41.6662 36.1446 42.1096 35.8322C42.5529 35.5199 42.8956 35.1276 43.1328 34.6603C43.3725 34.1906 43.4899 33.6434 43.4899 33.0187V32.9823C43.4899 32.0695 43.267 31.3552 42.8141 30.8419C42.366 30.3238 41.7501 29.917 40.9689 29.6167ZM39.7946 27.1736C39.7946 27.6821 39.6029 28.0526 39.2147 28.2777C38.8289 28.5078 38.3089 28.6191 37.6475 28.6191H34.9036V25.7305H37.8416C38.4718 25.7305 38.9559 25.8492 39.2914 26.0913C39.6293 26.3334 39.7946 26.6797 39.7946 27.1373V27.1736Z" fill="#187A88"/>
<path d="M54.7172 28.8347C54.5494 28.4715 54.3386 28.1374 54.0965 27.8299C53.8066 27.4691 53.4735 27.1592 53.0828 26.9001C52.9055 26.7766 52.7162 26.6701 52.5173 26.5708C51.887 26.2584 51.137 26.1035 50.2743 26.1035C49.5122 26.1035 48.822 26.2439 48.1942 26.5345C47.5711 26.8202 47.0319 27.21 46.579 27.7064C46.1285 28.2003 45.7762 28.7815 45.527 29.4449C45.273 30.1083 45.1484 30.8129 45.1484 31.5538V31.5902C45.1484 32.3989 45.285 33.1325 45.5558 33.7887C45.8266 34.4497 46.2004 35.0187 46.6869 35.4982C47.1709 35.98 47.7437 36.3553 48.4075 36.6144C49.0713 36.8735 49.7902 37.0042 50.5642 37.0042C51.5036 37.0042 52.3208 36.8347 53.0181 36.4885C53.7155 36.1446 54.305 35.6628 54.7987 35.0502L53.114 33.5442C52.7042 33.9219 52.304 34.1955 51.9182 34.3674C51.53 34.5369 51.0914 34.6192 50.6002 34.6192C49.9436 34.6192 49.3924 34.4497 48.9491 34.1035C48.5009 33.7597 48.211 33.2463 48.0696 32.5684H55.2827C55.2947 32.4231 55.3043 32.302 55.3115 32.1979C55.3163 32.0938 55.3187 31.9679 55.3187 31.8275V31.7863C55.3187 31.0454 55.2204 30.3335 55.0167 29.6483C54.9424 29.3601 54.8394 29.089 54.7172 28.8347ZM48.0336 30.7112C48.1511 30.0357 48.4003 29.4957 48.7789 29.0914C49.1599 28.687 49.6584 28.4861 50.2791 28.4861C50.8949 28.4861 51.3934 28.6894 51.7648 29.1011C52.1387 29.5078 52.3735 30.0454 52.4622 30.7112H48.0336Z" fill="#187A88"/>
<path d="M82 27.8299C81.5806 27.3045 81.0558 26.8807 80.4231 26.5684C79.7929 26.256 79.0428 26.1011 78.1801 26.1011C77.4205 26.1011 76.7279 26.2415 76.1024 26.5321C75.7214 26.7064 75.3763 26.917 75.06 27.1664C74.8539 27.3287 74.6646 27.5078 74.4873 27.704C74.1781 28.0405 73.9193 28.4158 73.706 28.8347C73.603 29.0284 73.5119 29.2318 73.4305 29.4425C73.1812 30.1059 73.0566 30.8105 73.0566 31.5514V31.5877C73.0566 32.3965 73.1884 33.1301 73.4592 33.7863C73.73 34.4473 74.1086 35.0163 74.5927 35.4957C75.0744 35.9776 75.6495 36.3529 76.3133 36.612C76.9747 36.871 77.6937 37.0018 78.4677 37.0018C79.4119 37.0018 80.229 36.8323 80.9216 36.4861C81.6189 36.1422 82.2133 35.6604 82.7021 35.0478L81.0222 33.5417C80.6077 33.9195 80.2075 34.1931 79.8217 34.365C79.4358 34.5345 78.9949 34.6168 78.5084 34.6168C77.8518 34.6168 77.2982 34.4473 76.8525 34.1011C76.4092 33.7572 76.1144 33.2439 75.973 32.566H83.1862C83.1982 32.4207 83.2078 32.2996 83.215 32.1955C83.2221 32.0914 83.2269 31.9655 83.2269 31.825V31.7839C83.2269 31.043 83.1239 30.3311 82.925 29.6459C82.7261 28.9631 82.4169 28.3553 82 27.8299ZM75.9371 30.7112C76.0497 30.0357 76.3013 29.4957 76.6824 29.0914C77.061 28.687 77.5595 28.4861 78.1801 28.4861C78.8008 28.4861 79.2944 28.6894 79.6707 29.1011C80.0445 29.5078 80.277 30.0454 80.368 30.7112H75.9371Z" fill="#187A88"/>
<path d="M100.416 34.2875C99.8095 34.2875 99.2607 34.1809 98.7646 33.9654C98.2686 33.7475 97.8372 33.4473 97.4682 33.0526C97.1016 32.6603 96.814 32.2003 96.6175 31.6724C96.4162 31.1422 96.3155 30.5635 96.3155 29.9364V29.9C96.3155 29.3117 96.4138 28.7572 96.6175 28.2439C96.8164 27.7281 97.0944 27.2802 97.4466 26.8952C97.8037 26.5102 98.2135 26.2027 98.688 25.9751C99.1577 25.7451 99.6633 25.6313 100.203 25.6313C100.591 25.6313 100.943 25.6652 101.267 25.7305C101.59 25.7935 101.89 25.8855 102.166 26.0017C102.444 26.1204 102.712 26.2657 102.968 26.4327C103.225 26.6022 103.481 26.8008 103.742 27.0187L105.616 24.7354C105.269 24.4351 104.907 24.1688 104.533 23.9339C104.159 23.6966 103.759 23.5029 103.333 23.348C102.906 23.1882 102.448 23.0695 101.95 22.9848C101.454 22.9 100.905 22.8589 100.299 22.8589C99.2679 22.8589 98.3165 23.0453 97.4538 23.4158C96.5911 23.7862 95.8434 24.2947 95.2108 24.9388C94.5805 25.5828 94.0845 26.3335 93.7322 27.1858C93.3752 28.0381 93.2002 28.9533 93.2002 29.9339V29.9703C93.2002 30.9872 93.3728 31.9243 93.7202 32.7838C94.0677 33.6434 94.5542 34.3843 95.1796 35.0114C95.8027 35.6337 96.5528 36.1228 97.4227 36.4763C98.2926 36.8274 99.2583 37.0017 100.316 37.0017C101.552 37.0017 102.652 36.7911 103.615 36.3674C104.569 35.9436 105.396 35.4376 106.093 34.8371L103.22 33.4618C102.46 34.009 101.528 34.2875 100.416 34.2875Z" fill="#187A88"/>
<path d="M106.103 28.8926H100.224V31.4907H106.103V28.8926Z" fill="#187A88"/>
<path d="M112.81 26.687C112.513 26.9364 112.252 27.2293 112.029 27.5732L111.739 31.5005C111.876 30.9218 112.106 30.4594 112.436 30.1059C112.995 29.5054 113.764 29.2075 114.744 29.2075H114.902V26.101C114.025 26.0598 113.328 26.2584 112.81 26.687Z" fill="#187A88"/>
<path d="M111.593 26.2944H108.655V36.7689H111.593V26.2944Z" fill="#187A88"/>
<path d="M119.889 22.5054H116.796V25.1422H119.889V22.5054Z" fill="#187A88"/>
<path d="M119.813 26.2944H116.875V36.7689H119.813V26.2944Z" fill="#187A88"/>
<path d="M130.062 22.5054V27.6506C129.715 27.2366 129.283 26.8758 128.778 26.5635C128.267 26.2511 127.618 26.101 126.832 26.101C126.211 26.101 125.621 26.2148 125.051 26.4497C124.486 26.687 123.987 27.0356 123.553 27.4957C123.12 27.9581 122.772 28.5272 122.509 29.1979C122.245 29.8686 122.113 30.641 122.113 31.5102V31.5514C122.113 32.423 122.245 33.1979 122.509 33.8637C122.772 34.5344 123.124 35.101 123.561 35.5659C124.002 36.0284 124.505 36.377 125.068 36.6119C125.636 36.8443 126.223 36.963 126.829 36.963C127.603 36.963 128.246 36.8032 128.751 36.4884C129.262 36.1688 129.698 35.7644 130.057 35.2753V36.7669H133V22.5054H130.062ZM130.103 31.5514C130.103 31.9848 130.033 32.3819 129.897 32.7427C129.76 33.1034 129.58 33.4109 129.357 33.6652C129.13 33.9218 128.866 34.118 128.564 34.2535C128.26 34.394 127.934 34.4618 127.589 34.4618C127.241 34.4618 126.913 34.394 126.609 34.2535C126.307 34.1155 126.041 33.9194 125.808 33.6652C125.578 33.4085 125.389 33.101 125.257 32.7427C125.121 32.3819 125.051 31.9872 125.051 31.5514V31.5102C125.051 31.0647 125.121 30.6652 125.257 30.3117C125.389 29.9557 125.576 29.6506 125.808 29.3964C126.038 29.1397 126.307 28.9436 126.609 28.808C126.913 28.67 127.239 28.5998 127.589 28.5998C127.934 28.5998 128.26 28.67 128.564 28.808C128.866 28.946 129.13 29.1422 129.357 29.3964C129.58 29.6531 129.76 29.9606 129.897 30.3189C130.033 30.6821 130.103 31.0792 130.103 31.5102V31.5514Z" fill="#187A88"/>
<path d="M64.6088 18.7184C60.9447 17.7862 58.2248 14.4278 58.2248 10.4399C58.2248 8.52952 58.8359 6.72565 59.9646 5.24623C60.2714 4.84429 60.8657 4.81765 61.2179 5.18085L62.2388 6.22928L63.2333 2.60458L63.799 0.531938L63.8493 0.345497L63.8995 0.161478C63.9259 0.0670468 63.8421 -0.0201202 63.7486 0.00409285L57.7169 1.58279L58.7113 2.60458C59.0132 2.91451 59.0349 3.40361 58.7593 3.73533C57.2136 5.60216 56.3438 7.98473 56.3438 10.4375C56.3438 15.4036 59.7945 19.5707 64.4027 20.6167C64.5441 20.6482 64.6807 20.5441 64.6903 20.3964L64.7862 18.9605C64.7982 18.8491 64.7215 18.7474 64.6088 18.7184Z" fill="#A6D2A9"/>
<path d="M73.7424 2.75935C72.3477 1.46395 70.6486 0.592284 68.8226 0.212139C68.6428 0.178241 68.4655 0.146764 68.2858 0.120129C68.1204 0.0934947 67.9575 0.0741242 67.7897 0.057175C67.7226 0.0499111 67.6555 0.0450685 67.5884 0.0378046C67.5597 0.032962 67.5285 0.032962 67.4973 0.0305407C67.3368 0.0184341 67.1738 0.0111702 67.0085 0.00632755H66.8935C66.8551 0.00390625 66.8168 0.00390625 66.7808 0.00390625C66.673 0.00390625 66.4981 0.00632755 66.3902 0.0111702C66.2968 0.0160128 66.2057 0.0184341 66.1122 0.0232767H66.1026C65.6282 0.0523324 65.2447 0.425214 65.1992 0.904633L65.0866 2.0717L65.0842 2.11044L64.1999 11.4034C64.164 11.7884 64.5019 12.1007 64.8781 12.0305L65.9708 11.8271C66.3399 11.7593 66.6754 12.0596 66.649 12.4373C66.649 12.4373 66.2225 18.9603 66.2225 18.9627L66.1913 19.4349C66.1913 19.4349 66.1386 20.2702 66.1122 20.6576C66.105 20.7642 66.1865 20.8586 66.292 20.8658C66.9366 20.9046 67.5932 20.861 68.2306 20.7666C68.8633 20.6746 69.4864 20.522 70.0902 20.3138C70.6822 20.108 71.2573 19.8489 71.8013 19.539C72.3429 19.2315 72.8557 18.8755 73.3326 18.4736C73.8095 18.0741 74.2504 17.6334 74.6482 17.1564C75.0484 16.677 75.4055 16.1612 75.7146 15.6189C76.0261 15.0692 76.2873 14.493 76.4958 13.8973C76.7067 13.2896 76.8625 12.6625 76.9583 12.0257C77.0374 11.5027 77.0757 10.9724 77.0757 10.4421C77.0781 7.52933 75.8632 4.7303 73.7424 2.75935ZM67.2337 17.3792L70.2316 8.19034C70.3682 7.77146 70.0112 7.35499 69.5798 7.4349L68.3289 7.66734C67.9359 7.73998 67.5884 7.39373 67.6579 6.99664L68.118 4.30899L68.3097 3.1855C68.4152 2.57533 69.0406 2.20245 69.6182 2.41068C70.663 2.79083 71.6335 3.38163 72.4699 4.15645C72.8964 4.55354 73.2775 4.98938 73.6106 5.45911C74.6338 6.89979 75.2018 8.64555 75.2018 10.4445C75.2018 15.0596 71.5209 18.8295 66.9845 18.9748C66.8527 18.9796 66.7569 18.8465 66.7976 18.7181L67.2337 17.3792Z" fill="#2F354D"/>
</svg>
