<svg width="163" height="45" viewBox="0 0 163 45" fill="none" xmlns="http://www.w3.org/2000/svg">
<path d="M108.279 32.1236H104.678V44.8557H108.279V32.1236Z" fill="white"/>
<path d="M109.774 32.5977C109.41 32.8951 109.104 33.2485 108.819 33.6607L108.813 33.6695L108.458 38.4455C108.626 37.7418 108.907 37.1823 109.307 36.7554C109.994 36.0281 110.94 35.663 112.141 35.663H112.329V31.8851C111.257 31.8351 110.402 32.0765 109.774 32.5977Z" fill="white"/>
<path d="M88.8394 35.0653C89.2006 34.2055 89.6882 33.434 90.2961 32.7744C90.5605 32.48 90.8483 32.215 91.1596 31.9765H84.5074V28.7198H80.9067V31.9765H79.3913H74.6746V28.7198H71.0739V31.9765H66.3395C66.7125 32.2798 67.0503 32.6213 67.3528 32.9953C67.8462 33.6136 68.2427 34.3085 68.5305 35.0653H71.0768V41.1015C71.0768 41.8465 71.1679 42.4589 71.35 42.9418C71.5291 43.4277 71.7817 43.8222 72.1106 44.1196C72.4337 44.4229 72.8214 44.6349 73.2707 44.7497C73.7201 44.8675 74.2193 44.9264 74.7715 44.9264C75.3736 44.9264 75.9051 44.8587 76.3633 44.7291C76.8185 44.5937 77.2356 44.4141 77.6174 44.1932V41.2929C77.0652 41.5962 76.472 41.7434 75.8405 41.7434C75.0622 41.7434 74.6746 41.3341 74.6746 40.5067V35.0653H79.3913H80.9067V41.1015C80.9067 41.8465 80.9978 42.4589 81.1799 42.9418C81.359 43.4277 81.6116 43.8222 81.9405 44.1196C82.2636 44.4229 82.6513 44.6349 83.1006 44.7497C83.55 44.8675 84.0493 44.9264 84.6014 44.9264C85.2035 44.9264 85.7351 44.8587 86.1932 44.7291C86.6485 44.5937 87.0655 44.4141 87.4473 44.1932V41.2929C86.8952 41.5962 86.3019 41.7434 85.6705 41.7434C84.8922 41.7434 84.5045 41.3341 84.5045 40.5067V35.0653H88.8394Z" fill="white"/>
<path d="M3.5302 28.7198H1.70342V32.427H0V34.0465H1.70342V41.4578C1.70342 42.0761 1.79447 42.6061 1.96481 43.0508C2.14103 43.4924 2.38186 43.8546 2.69023 44.1343C3.00155 44.4082 3.36573 44.6114 3.79159 44.738C4.21744 44.8646 4.67854 44.9264 5.16901 44.9264C5.60955 44.9264 6.00897 44.8852 6.36434 44.7969C6.71971 44.7115 7.05746 44.579 7.37171 44.4052V42.8417C7.05746 43.0007 6.76083 43.1067 6.48182 43.1715C6.20868 43.2392 5.91205 43.2716 5.59486 43.2716C4.97811 43.2716 4.47883 43.1185 4.1029 42.8152C3.7211 42.5178 3.53313 41.9849 3.53313 41.2222V34.0494H7.42164V32.4299H3.5302V28.7198Z" fill="white"/>
<path d="M12.4673 27.3683H10.6406V44.7144H12.4673V27.3683Z" fill="white"/>
<path d="M20.1121 33.537C19.7068 33.0983 19.2164 32.7626 18.6407 32.527C18.0651 32.2885 17.4043 32.1678 16.6612 32.1678C15.601 32.1678 14.7405 32.4033 14.0767 32.8715C14.0092 32.9216 13.9416 32.9716 13.8741 33.0217V34.5735C14.1179 34.3791 14.388 34.226 14.6847 34.1082C15.134 33.9286 15.6186 33.8344 16.1414 33.8344C17.231 33.8344 18.0651 34.1671 18.6495 34.8355C19.234 35.498 19.5277 36.4049 19.5277 37.5415V44.7202H21.3545V37.091C21.3545 36.3637 21.2517 35.6983 21.0343 35.0976C20.8199 34.4881 20.5116 33.9698 20.1121 33.537Z" fill="white"/>
<path d="M32.8614 42.933C32.2506 43.248 31.5222 43.407 30.6675 43.407C30.133 43.407 29.6191 43.3158 29.1286 43.1361C28.6381 42.9506 28.1946 42.6797 27.8011 42.3235C27.4046 41.9672 27.0815 41.5343 26.829 41.019C26.7467 40.8571 26.6762 40.6863 26.6116 40.5038H24.732C24.7995 40.7393 24.8759 40.969 24.9699 41.1928C25.2988 41.9848 25.7423 42.6621 26.2974 43.2274C26.8554 43.7869 27.5074 44.2227 28.2504 44.5348C28.9935 44.841 29.7806 44.9941 30.6206 44.9941C31.7895 44.9941 32.7645 44.788 33.5575 44.3669C34.3475 43.9488 35.0495 43.3894 35.6662 42.6886L34.5296 41.6639C34.0245 42.1939 33.4664 42.6179 32.8614 42.933Z" fill="white"/>
<path d="M34.5766 34.067C34.0861 33.4811 33.484 33.0158 32.7733 32.6772C32.0625 32.3357 31.2578 32.1619 30.3591 32.1619C29.5045 32.1619 28.7174 32.3298 27.9978 32.6625C27.2783 32.9952 26.6615 33.4516 26.1417 34.0287C25.6189 34.6059 25.2107 35.2919 24.9199 36.0722C24.6262 36.8555 24.4823 37.6947 24.4823 38.578C24.4823 38.8047 24.4911 39.0285 24.5146 39.2464H36.0509C36.0656 39.1345 36.0744 39.0285 36.0744 38.9343V38.6722C36.0744 37.7712 35.9481 36.9232 35.6926 36.1341C35.4371 35.3449 35.067 34.653 34.5766 34.067ZM26.3531 37.8949C26.4148 37.2913 26.5587 36.7347 26.776 36.2312C26.9963 35.7218 27.2812 35.2831 27.6248 34.9092C27.9714 34.5381 28.3708 34.2466 28.826 34.0287C29.2813 33.8167 29.7747 33.7078 30.3092 33.7078C30.9201 33.7078 31.4605 33.8256 31.9245 34.0494C32.3885 34.279 32.7791 34.5853 33.1022 34.9651C33.4223 35.3479 33.672 35.7896 33.8541 36.296C34.0391 36.8054 34.1507 37.3384 34.1947 37.8919H26.3531V37.8949Z" fill="white"/>
<path d="M50.2099 36.0163C50.5065 35.8573 50.7855 35.6688 51.0469 35.448C51.3024 35.2272 51.5315 34.971 51.7253 34.6736C51.9221 34.3791 52.0807 34.0552 52.1982 33.6901C52.3157 33.325 52.3744 32.9069 52.3744 32.4269V32.3828C52.3744 31.0666 51.8927 30.0213 50.9206 29.2439C49.9485 28.4695 48.6151 28.0808 46.9088 28.0808H39.2228V37.8478H46.9939C47.9426 37.8478 48.6298 38.0097 49.0586 38.3336C49.4844 38.6575 49.6959 39.0992 49.6959 39.6498V39.6999C49.6959 40.3182 49.4668 40.7717 49.0087 41.0661C48.5505 41.3606 47.9191 41.5078 47.1143 41.5078H43.778V41.5137H39.2228V44.7144H47.1026C48.0336 44.7144 48.8794 44.6201 49.643 44.4317C50.4066 44.2432 51.0645 43.9547 51.6079 43.5748C52.1512 43.195 52.5712 42.718 52.8619 42.1497C53.1556 41.5785 53.2995 40.913 53.2995 40.1533V40.1092C53.2995 38.9991 53.0264 38.1304 52.4713 37.5062C51.9221 36.8761 51.1673 36.3814 50.2099 36.0163ZM48.7708 33.0453C48.7708 33.6636 48.5358 34.1141 48.06 34.388C47.5872 34.6677 46.9499 34.8032 46.1393 34.8032H42.7765V31.2904H46.3772C47.1496 31.2904 47.7428 31.4346 48.154 31.7291C48.5681 32.0235 48.7708 32.4446 48.7708 33.0011V33.0453Z" fill="white"/>
<path d="M67.0591 35.0652C66.8535 34.6236 66.5951 34.2172 66.2984 33.8433C65.9431 33.4045 65.5348 33.0276 65.0561 32.7126C64.8388 32.5624 64.6068 32.4329 64.363 32.3121C63.5906 31.9323 62.6713 31.7438 61.614 31.7438C60.6801 31.7438 59.8342 31.9146 59.0648 32.268C58.3012 32.6154 57.6403 33.0895 57.0853 33.6931C56.5331 34.2938 56.1014 35.0005 55.7959 35.8073C55.4846 36.6141 55.3319 37.4709 55.3319 38.3719V38.4161C55.3319 39.3996 55.4993 40.2917 55.8312 41.0897C56.1631 41.8936 56.6212 42.5855 57.2174 43.1685C57.8107 43.7545 58.5126 44.2109 59.3261 44.5259C60.1397 44.841 61.0208 45 61.9694 45C63.1207 45 64.1222 44.7939 64.9768 44.3728C65.8315 43.9547 66.5539 43.3688 67.159 42.6238L65.0943 40.7923C64.5921 41.2516 64.1016 41.5844 63.6288 41.7934C63.153 41.9996 62.6155 42.0997 62.0134 42.0997C61.2087 42.0997 60.5332 41.8936 59.9899 41.4725C59.4407 41.0544 59.0853 40.4301 58.912 39.6057H67.7522C67.7669 39.429 67.7787 39.2818 67.7875 39.1552C67.7933 39.0285 67.7963 38.8754 67.7963 38.7047V38.6546C67.7963 37.7536 67.6759 36.8879 67.4262 36.0546C67.3352 35.7042 67.2089 35.3744 67.0591 35.0652ZM58.868 37.3472C59.0119 36.5257 59.3173 35.8691 59.7814 35.3774C60.2483 34.8856 60.8592 34.6412 61.6199 34.6412C62.3747 34.6412 62.9856 34.8886 63.4408 35.3891C63.899 35.8838 64.1868 36.5375 64.2954 37.3472H58.868Z" fill="white"/>
<path d="M100.496 33.8433C99.9821 33.2043 99.339 32.689 98.5636 32.3092C97.7912 31.9294 96.8719 31.7409 95.8146 31.7409C94.8836 31.7409 94.0349 31.9117 93.2683 32.265C92.8013 32.477 92.3784 32.7332 91.9907 33.0365C91.7382 33.2338 91.5061 33.4517 91.2888 33.6902C90.9099 34.0995 90.5928 34.5559 90.3314 35.0653C90.2051 35.3008 90.0935 35.5482 89.9936 35.8043C89.6882 36.6111 89.5355 37.468 89.5355 38.369V38.4132C89.5355 39.3966 89.697 40.2888 90.0289 41.0868C90.3607 41.8906 90.8248 42.5826 91.418 43.1656C92.0084 43.7515 92.7132 44.2079 93.5268 44.523C94.3374 44.8381 95.2184 44.9971 96.1671 44.9971C97.3242 44.9971 98.3257 44.791 99.1745 44.3699C100.029 43.9518 100.757 43.3658 101.357 42.6209L99.2978 40.7894C98.7898 41.2487 98.2993 41.5814 97.8264 41.7905C97.3536 41.9966 96.8132 42.0967 96.217 42.0967C95.4123 42.0967 94.7338 41.8906 94.1876 41.4696C93.6442 41.0514 93.283 40.4272 93.1097 39.6027H101.95C101.965 39.4261 101.976 39.2788 101.985 39.1522C101.994 39.0256 102 38.8725 102 38.7017V38.6517C102 37.7506 101.874 36.885 101.63 36.0517C101.386 35.2213 101.007 34.4822 100.496 33.8433ZM93.0657 37.3472C93.2037 36.5257 93.5121 35.8691 93.979 35.3774C94.4431 34.8856 95.054 34.6412 95.8146 34.6412C96.5753 34.6412 97.1803 34.8886 97.6414 35.3891C98.0996 35.8838 98.3845 36.5375 98.4961 37.3472H93.0657Z" fill="white"/>
<path d="M123.066 41.6963C122.323 41.6963 121.651 41.5667 121.043 41.3047C120.435 41.0397 119.906 40.6745 119.454 40.1946C119.005 39.7176 118.652 39.1581 118.411 38.5162C118.165 37.8714 118.041 37.1676 118.041 36.405V36.3608C118.041 35.6453 118.162 34.971 118.411 34.3468C118.655 33.7196 118.996 33.1749 119.428 32.7067C119.865 32.2385 120.367 31.8646 120.949 31.5878C121.525 31.3081 122.144 31.1697 122.805 31.1697C123.281 31.1697 123.713 31.2109 124.109 31.2904C124.506 31.367 124.873 31.4788 125.21 31.6202C125.551 31.7645 125.88 31.9411 126.194 32.1443C126.509 32.3504 126.823 32.5919 127.143 32.8569L129.44 30.0802C129.014 29.7151 128.57 29.3912 128.112 29.1056C127.654 28.817 127.163 28.5815 126.641 28.393C126.118 28.1987 125.557 28.0544 124.946 27.9513C124.338 27.8483 123.666 27.7982 122.923 27.7982C121.66 27.7982 120.494 28.0249 119.436 28.4755C118.379 28.926 117.463 29.5443 116.687 30.3275C115.915 31.1108 115.307 32.0236 114.875 33.06C114.438 34.0965 114.223 35.2095 114.223 36.4021V36.4462C114.223 37.6829 114.435 38.8224 114.861 39.8677C115.286 40.913 115.883 41.8141 116.649 42.5767C117.413 43.3334 118.332 43.9282 119.398 44.3581C120.464 44.7851 121.648 44.9971 122.943 44.9971C124.459 44.9971 125.807 44.7409 126.987 44.2256C128.156 43.7103 129.169 43.0949 130.024 42.3647L126.503 40.6922C125.572 41.3577 124.429 41.6963 123.066 41.6963Z" fill="white"/>
<path d="M130.036 35.1359H122.832V38.2953H130.036V35.1359Z" fill="white"/>
<path d="M138.256 32.4534C137.892 32.7567 137.572 33.113 137.299 33.5311L136.943 38.3071C137.111 37.6034 137.393 37.041 137.798 36.6111C138.482 35.8808 139.425 35.5187 140.626 35.5187H140.82V31.7409C139.745 31.6908 138.891 31.9323 138.256 32.4534Z" fill="white"/>
<path d="M136.764 31.9764H133.164V44.7144H136.764V31.9764Z" fill="white"/>
<path d="M146.932 27.3683H143.14V30.5749H146.932V27.3683Z" fill="white"/>
<path d="M146.838 31.9764H143.237V44.7144H146.838V31.9764Z" fill="white"/>
<path d="M159.399 27.3683V33.6254C158.973 33.1219 158.445 32.6831 157.825 32.3033C157.2 31.9234 156.404 31.7409 155.44 31.7409C154.68 31.7409 153.957 31.8793 153.258 32.1649C152.565 32.4535 151.954 32.8775 151.423 33.4369C150.891 33.9993 150.465 34.6913 150.142 35.5069C149.819 36.3225 149.657 37.2618 149.657 38.3189V38.369C149.657 39.429 149.819 40.3712 150.142 41.181C150.465 41.9966 150.897 42.6856 151.431 43.251C151.972 43.8134 152.589 44.2374 153.279 44.523C153.975 44.8057 154.694 44.9499 155.437 44.9499C156.386 44.9499 157.173 44.7556 157.793 44.3728C158.418 43.9841 158.953 43.4924 159.393 42.8976V44.7114H163V27.3683H159.399ZM159.449 38.369C159.449 38.896 159.364 39.3789 159.197 39.8177C159.029 40.2564 158.809 40.6303 158.536 40.9395C158.257 41.2516 157.934 41.4901 157.564 41.655C157.191 41.8258 156.791 41.9083 156.368 41.9083C155.942 41.9083 155.54 41.8258 155.167 41.655C154.797 41.4872 154.471 41.2487 154.186 40.9395C153.904 40.6274 153.672 40.2535 153.511 39.8177C153.343 39.3789 153.258 38.899 153.258 38.369V38.3189C153.258 37.7771 153.343 37.2913 153.511 36.8614C153.672 36.4285 153.901 36.0575 154.186 35.7484C154.468 35.4362 154.797 35.1977 155.167 35.0328C155.54 34.865 155.94 34.7796 156.368 34.7796C156.791 34.7796 157.191 34.865 157.564 35.0328C157.934 35.2007 158.257 35.4392 158.536 35.7484C158.809 36.0605 159.029 36.4344 159.197 36.8702C159.364 37.3119 159.449 37.7948 159.449 38.3189V38.369Z" fill="white"/>
<path d="M79.1828 22.7631C74.6922 21.6294 71.3588 17.5454 71.3588 12.6958C71.3588 10.3726 72.1077 8.17893 73.491 6.37984C73.8669 5.89105 74.5953 5.85866 75.027 6.30033L76.2782 7.57531L77.497 3.16738L78.1901 0.64688L78.2518 0.420153L78.3134 0.19637C78.3458 0.0815344 78.243 -0.0244678 78.1284 0.00497725L70.7362 1.9248L71.955 3.16738C72.325 3.54428 72.3515 4.13907 72.0137 4.54246C70.1194 6.81268 69.0533 9.71007 69.0533 12.6929C69.0533 18.732 73.2825 23.7995 78.9302 25.0716C79.1035 25.1098 79.2709 24.9832 79.2826 24.8036L79.4001 23.0575C79.4148 22.9221 79.3208 22.7984 79.1828 22.7631Z" fill="white"/>
<path d="M90.3754 3.35585C88.6661 1.78054 86.5838 0.72052 84.3459 0.258233C84.1256 0.217009 83.9083 0.178731 83.688 0.146341C83.4854 0.113952 83.2856 0.0903956 83.0801 0.0697841C82.9978 0.0609505 82.9156 0.0550615 82.8334 0.046228C82.7981 0.040339 82.7599 0.040339 82.7218 0.0373945C82.525 0.0226719 82.3253 0.0138384 82.1226 0.00794939H81.9816C81.9347 0.00500488 81.8877 0.00500488 81.8436 0.00500488C81.7115 0.00500488 81.4971 0.00794939 81.3649 0.0138384C81.2504 0.0197274 81.1387 0.0226719 81.0242 0.0285609H81.0125C80.4309 0.063895 79.961 0.517349 79.9052 1.10036L79.7672 2.51961L79.7643 2.56673L78.6805 13.8677C78.6365 14.3359 79.0506 14.7158 79.5117 14.6304L80.8509 14.383C81.3032 14.3006 81.7144 14.6657 81.6821 15.1251C81.6821 15.1251 81.1593 23.0576 81.1593 23.0605L81.1211 23.6347C81.1211 23.6347 81.0565 24.6505 81.0242 25.1217C81.0154 25.2512 81.1153 25.3661 81.2445 25.3749C82.0345 25.422 82.8392 25.369 83.6205 25.2542C84.3958 25.1423 85.1594 24.9568 85.8995 24.7035C86.6249 24.4533 87.3298 24.1382 87.9965 23.7613C88.6602 23.3873 89.2887 22.9545 89.8732 22.4657C90.4576 21.9799 90.998 21.444 91.4856 20.8639C91.976 20.2809 92.4136 19.6537 92.7925 18.9941C93.1743 18.3257 93.4944 17.6249 93.7499 16.9006C94.0084 16.1615 94.1993 15.3989 94.3168 14.6245C94.4137 13.9885 94.4607 13.3436 94.4607 12.6988C94.4636 9.15654 92.9746 5.75268 90.3754 3.35585ZM82.3987 21.1348L86.0728 9.96039C86.2402 9.45099 85.8026 8.94453 85.2739 9.0417L83.7409 9.32437C83.2592 9.41271 82.8334 8.99164 82.9185 8.50874L83.4824 5.24034L83.7174 3.87409C83.8466 3.13207 84.6131 2.67862 85.3209 2.93185C86.6014 3.39413 87.7909 4.11259 88.8159 5.05484C89.3387 5.53773 89.8056 6.06775 90.2139 6.63898C91.4679 8.39096 92.164 10.514 92.164 12.7017C92.164 18.314 87.6529 22.8986 82.0932 23.0752C81.9317 23.0811 81.8142 22.9192 81.8642 22.7631L82.3987 21.1348Z" fill="white"/>
</svg>
