<svg xmlns="http://www.w3.org/2000/svg" xmlns:xlink="http://www.w3.org/1999/xlink" viewBox="0 0 544.688 611.053"><path d="M381.904 531.301c51.401 5.619 139.232-11.196 156.554-80.3l.294-.872c8.865-20.951.265-48.623-9.693-80.665-11.441-36.818-24.409-78.548-17.412-125.83l.105-.539c14.422-59.126 7.035-118.741-20.265-163.559C468.35 41.555 431.88 15.584 386.001 4.419c-98.853-14.457-122.16 40.655-178.433 173.638-44.945 106.223-51.038 186.55-18.628 245.572 30.21 55.012 95.129 91.237 192.964 107.672z" fill="#f3f3f3"/><defs><path id="a" d="M383.957 531.301c51.401 5.619 139.232-11.196 156.554-80.3l.294-.872c8.865-20.951.265-48.623-9.693-80.665-11.441-36.818-24.409-78.548-17.412-125.83l.105-.539c14.422-59.126 7.035-118.741-20.265-163.559-23.136-37.982-59.606-63.952-105.484-75.117-98.853-14.457-122.16 40.655-178.433 173.638-44.945 106.223-51.038 186.55-18.628 245.572 30.208 55.012 95.127 91.237 192.962 107.672z"/></defs><clipPath id="b"><use xlink:href="#a" overflow="visible"/></clipPath><g clip-path="url(#b)" fill="none" stroke="#111d1e" stroke-width="1.666" stroke-miterlimit="10"><path d="M291.188-4.571v542.332M426.233-4.556l-3.806 542.302M569.534-4.569l-7.18 542.327M707.308-4.568l-6.94 542.325M833.52-4.571v542.332m0-542.332H291.188m542.317 135.044l-542.302 9.256m542.314 134.045l-542.326 6.65m542.326 131.124l-542.326-6.94M833.52 537.761H291.188"/></g><path d="M206.138 206.072c-10.133 17.923-20.064 40.288-30.354 68.355l-.451 1.232-.931.929c-1.027 1.028-102.771 103.634-103.611 173.933-.8 66.78 24.976 98.149 110.32 134.262 40.219 17.017 97.853 27.296 146.881 26.189 54.106-1.224 90.905-15.564 100.967-39.342 22.243-52.572 22.243-52.572-13.271-116.493l-6.011-10.834c-40.827-73.758-38.968-120.934-38.634-125.937-.099-4.52.25-43.233 35.865-127.405 9.658-22.827 10.124-41.496 1.384-55.489-16.557-26.513-61.063-29.213-61.51-29.238-11.225-.83-70.255.139-140.644 99.838z" fill="#ff8300"/><path d="M175.417 52.832c-26.07 33.635-40.538 61.011-66.782 84.018C55.716 183.24.255 218.564.001 293.913c-.276 81.818 113.167 66.294 220.208 173.207 27.673 27.672 72.343 34.567 90.753 33.374 0 0 41.813-2.077 63.197-31.064 14.041-19.038 16.676-45.7 7.829-79.247-19.785-75.018-9.341-101.628 5.116-138.457 8.103-20.647 17.287-44.048 24.031-81.649 18.273-101.857-68.81-153.246-69.692-153.754-3.728-2.295-88.4-52.888-166.026 36.509z" fill="#3d6d3f"/><path d="M384.884 272.495c45.792-108.221 39.727-143.31-12.603-165.452-35.521-15.03-137.636 18.086-183.428 126.308-47.814 113.001-22.83 250.468 111.431 268.9 43.425 4.795 75.903-26.305 85.7-42.351 29.425-47.593-34.013-109.621-1.1-187.405z" fill="#dccdbd"/><path d="M360.792 441.518c-4.107 52.706 34.993 109.278 68.189 130.673 5.476-13.005 5.249-8.293 11.061-28.204l-79.25-102.469z"/><path d="M378.573 399.298s27.915-31.457 31.515-55.605c5.623-40.509 51.444-54.759 80.714-37.303 53.702 41.902 87.081 165.088 2.116 226.139-78.328 58.005-171.805-75.086-114.345-133.231z" fill="#365eb0"/></svg>