<svg width="70" height="66" viewBox="0 0 70 66" fill="none" xmlns="http://www.w3.org/2000/svg">
<path d="M70 25.5766C70 26.1865 69.6354 26.8519 68.9063 27.5728L53.6358 42.2949L57.2536 63.0888C57.2817 63.2829 57.2957 63.5602 57.2957 63.9206C57.2957 64.5028 57.1484 64.9949 56.854 65.397C56.5595 65.799 56.1318 66 55.5709 66C55.038 66 54.4772 65.8336 53.8882 65.5009L35 55.6862L16.1118 65.5009C15.4948 65.8336 14.9339 66 14.4291 66C13.8401 66 13.3984 65.799 13.104 65.397C12.8095 64.9949 12.6623 64.5028 12.6623 63.9206C12.6623 63.7543 12.6903 63.477 12.7464 63.0888L16.3642 42.2949L1.05168 27.5728C0.350547 26.8242 0 26.1588 0 25.5766C0 24.5507 0.78527 23.913 2.35577 23.6635L23.4736 20.6276L32.9387 1.7051C33.4716 0.568382 34.1587 0 35 0C35.8413 0 36.5284 0.568382 37.0613 1.7051L46.5264 20.6276L67.6442 23.6635C69.2147 23.913 70 24.5507 70 25.5766Z" fill="#207D87"/>
<path d="M35 7L43.229 24.2693L61.6296 27.0385L48.3148 40.4807L51.458 59.4615L35 50.5L18.542 59.4615L21.6852 40.4807L8.37042 27.0385L26.771 24.2693L35 7Z" fill="#F7FBF8"/>
<mask id="mask0" mask-type="alpha" maskUnits="userSpaceOnUse" x="35" y="6" width="27" height="54">
<rect x="35" y="6" width="27" height="54" fill="#C4C4C4"/>
</mask>
<g mask="url(#mask0)">
<path d="M35 7L43.229 24.2693L61.6296 27.0385L48.3148 40.4807L51.458 59.4615L35 50.5L18.542 59.4615L21.6852 40.4807L8.37042 27.0385L26.771 24.2693L35 7Z" fill="#207D87"/>
</g>
<mask id="mask1" mask-type="alpha" maskUnits="userSpaceOnUse" x="8" y="6" width="27" height="54">
<rect x="8" y="6" width="27" height="54" fill="#C4C4C4"/>
</mask>
<g mask="url(#mask1)">
<path d="M35 7L43.229 24.2693L61.6296 27.0385L48.3148 40.4807L51.458 59.4615L35 50.5L18.542 59.4615L21.6852 40.4807L8.37042 27.0385L26.771 24.2693L35 7Z" fill="#207D87"/>
</g>
</svg>
